<?xml version="1.0" encoding="UTF-8"?>
<svg version="1.1" viewBox="0 0 832 1044" width="208" height="261" xmlns="http://www.w3.org/2000/svg">
<path transform="translate(0)" d="m0 0h832v1044h-832z" fill="#FDFDFD"/>
<path transform="translate(134,8)" d="m0 0 19 1 16 4 14 6 11 7 11 9 8 9 13 18 15 22 17 25 14 20 13 19 11 16 13 19 15 22 14 20 26 38 16 23 16 24 8 11 13 19 16 23 19 28 16 23 26 38 12 17 11 18 8 17 3 10 1 7v24l-3 16-6 16-6 11-9 12-8 8-8 6-14 10-18 10-12 5-12 3-7 1h-16l-12-1-22-7-15-8-14-11-10-12-10-14-13-19-11-16-12-17-10-15-16-23-13-19-11-16-6-9-1 449-2 24-5 21-6 16-8 16-10 15-11 12-11 10-13 8-14 6-13 3-17 1-17-2-13-4-16-8-13-10-9-9-11-14-9-15-8-18-5-17-3-18-1-11-1-66v-452l1-251 3-30 4-20 4-12 10-19 12-14 13-12 13-9 14-8 12-5 11-3z" fill="#3B05D1"/>
<path transform="translate(691,296)" d="m0 0h27l14 1 14 4 10 4 15 9 10 9 7 6 11 14 8 16 5 17 2 18v544l-2 18-4 15-8 17-9 12-11 12-13 10-15 8-17 5-16 2h-24l-20-3-13-4-16-8-13-10-9-9-10-14-7-12-7-21-1-10-1-62v-274l1-219 3-21 5-13 8-15 9-11 5-6 8-7 13-9 14-7 13-4z" fill="#B91498"/>
<path transform="translate(30,157)" d="m0 0 3 1 11 18 10 14 7 10 13 19 17 25 22 32 15 22 11 16 13 19 9 13 11 16-1 2-8-11-5-7v-2h-2l-3-5 3 8-3 7h-2l-2 12-1 35v19l1 36 1 9-1 17v12l-1 6 1 6v46l-1 14v246l1 64 1 21-1 43-1 62 1 9-4 9v3l12-4 6-3 3 1-13 6-16 4h-22l-14-3-16-8-13-11-9-9-11-15-9-16-7-19-4-17-2-23z" fill="#B91498"/>
<path transform="translate(98,28)" d="m0 0 3 1v2l3-1 2 2 5 3 3 7 4 13 8 11 6 9 4 5 8 14 7 9 7 11 9 12 6 9 8 11 8 12 14 20 16 24 7 10 4 6 8 11 7 11 21 30 9 13 10 14 3 5v2h2l7 11 10 15 14 20 8 12 9 13 10 14 8 11 7 11 11 15 10 15 10 14 6 10 6 7 14 21 4 5 7 10 20 30v2h2l7 12 6 10 5 9v2h2l1 5h2l4 8 3 3 2 11h2 3l-12 10-19 12-16 8-9 3-7 1h-22l-17-4-16-8-12-9-9-9-13-17-15-22-13-19-16-23-14-20-10-15-15-22-16-24-8-11-13-19-11-16-9-13-11-16-13-19-12-17-13-19-15-22-16-23-14-20-10-15-12-17-12-18-11-16-9-14-6-10-8-20-2-10v-15l2-16 6-16 8-14 9-11 13-11 20-13z" fill="#B91498"/>
<path transform="translate(691,296)" d="m0 0h27l14 1 14 4 10 4 15 9 10 9 7 6 11 14 8 16 5 17 2 18v544l-2 18-4 15-8 17-9 12-11 12-13 10-15 8-17 5-16 2h-24l-20-3-13-4-16-8-13-10-9-9-10-14-7-12-7-21-1-10-1-62v-274l1-219 3-21 5-13 8-15 9-11 5-6 8-7 13-9 14-7 13-4zm-1 10-21 5-16 8-11 8-11 11-10 15-7 16-2 7-2 18v543l2 18 5 17 6 11 9 12 14 14 15 10 10 4 10 3 7 1h32l17-3 3-2-8 1-9 1 4-8 1-13v-9l1-18v-18l1-17v-22l-1-59-1-32v-184l-1-16 1-78v-74l1-35v-96l1-9-1-9 1-1-1-9h-2v-2h-2l-1-3-5-2h9l13 3h5l-3-2-16-4-7-1z" fill="#3B05D1"/>
<path transform="translate(152,338)" d="m0 0 4 3v3h2l8 12 5 7 5 5 9 13 13 19 7 10 12 18 6 11 1 43v426l-2 20-4 17-7 19-9 17-12 16-11 11-11 8-10 3-9 4-5 1v-5l4-8-1-17 1-62 1-35-1-23-1-79v-230l1-16v-43l-1-7 1-5v-13l1-18-1-10-1-40v-14l1-36 3-9h2l1-7v-3z" fill="#3B05D1"/>
<path transform="translate(698,9)" d="m0 0h13l18 2 15 5 19 10 9 7 10 9 9 10 9 14 6 14 5 19 1 7v23l-4 18-5 13-7 14-11 14-9 9-12 9-15 8-19 6-20 3-21-1-16-4-11-4-15-8-12-9-9-8-9-11-9-15-7-19-3-16-1-17 2-17 6-18 10-19 10-13 11-11 13-9 14-7 15-5z" fill="#3B05D1"/>
<path transform="translate(134,8)" d="m0 0 19 1 16 4 14 6 11 7 11 9 8 9 13 18 15 22 17 25 14 20 13 19 11 16 13 19 15 22 14 20 26 38 16 23 16 24 8 11 13 19 16 23 19 28 16 23 26 38 12 17 11 18 8 17 3 10 1 7v24l-3 16-6 16-6 11-9 12-8 8-8 6-14 10-18 10-12 5-12 3-7 1h-16l-12-1-22-7-15-8-14-11-10-12-10-14-13-19-11-16-12-17-10-15-16-23-13-19-11-16-6-9-1 449-2 24-5 21-6 16-8 16-10 15-11 12-11 10-13 8-14 6-13 3-17 1-17-2-13-4-16-8-13-10-9-9-11-14-9-15-8-18-5-17-3-18-1-11-1-66v-452l1-251 3-30 4-20 4-12 10-19 12-14 13-12 13-9 14-8 12-5 11-3zm-7 11-14 3-13 5-13 7-16 11-13 11-10 13-8 15-4 12-2 16v15l3 13 5 13 6 11 7 11 15 22 8 12 11 16 7 10 15 22 14 20 16 23 8 12 16 23 13 19 16 23 8 12 7 10 13 19 14 20 13 19 16 24 7 10 15 22 14 20 16 23 16 24 12 16 9 11 8 8 15 10 11 5 17 4h22l10-2 15-6 17-10 14-10 12-11 7-8 9-16 4-10 4-20v-13l-2-12-6-18-11-19-12-17-11-16-14-20-8-12-14-20-15-22-16-23-17-25-7-10-13-19-14-20-10-15-7-10-11-16-14-20-12-18-10-14-8-12-12-17-8-12-16-23-13-19-15-22-12-17-13-16-10-9-13-8-12-5-15-3zm-97 138v749l2 23 4 17 7 19 9 16 9 12 9 10 12 11 14 8 12 4 7 1h22l16-4 16-8 11-8 12-12 11-16 8-15 7-19 4-17 2-20v-426l-1-43-9-16-9-13-14-20-8-12-16-23-8-12-14-20-16-24-8-11-10-15-16-23-17-25-8-12-9-13-10-14-12-18-7-11z" fill="#0D050B"/>
<path transform="translate(33,163)" d="m0 0 2 1 4 8 4 6 1 4h2l3 6 3 3v2h2l2 6v2l4 2 3 4 3 7 3 5 2 6v8l-3 5-3 1v5 3l-2 5v8l1 2-1 19 1 3v9l-1 5 1 12v12l1 2-1 18v19l1 11-1 8-1 10 1 4v18l-1 2 2 1-1 7v12l1 4v13l-1 3 2 27-1 4v8l1 9v11l-1 8 1 6 1 16v18l-1 10 2 17-2 5 1 3v21l1 11-2 5 2 16-1 5v9l1 4-2 8 1 1v15l1 14-1 7-1 1 2 9v4 20l-2 7 1 9v14l1 10-2 7 2 5-1 12v19l-2 2 1 10v15l1 5-1 9-1 5v39l-1 8 1 7-2 3h2l-1 10-1 7v13l1 6-1 4 1 7-1 2 3 11 1 4-6-5-4-5-5-5-9-16-5-13-2-11-2-7-2-16v-754z" fill="#F01887"/>
<path transform="translate(637,337)" d="m0 0 1 2h2l2 5 1 18 2 12 2 7-1 7 1 1-1 11-1 13-1 4v7l1 7-2 13 2 8-2 9v24l-1 8 1 6-1 4h2l1 18-1 4v8l1 5v6h-2l1 7v9l1 16v42l-1 5 1 8-1 1 1 9v16l-1 7 1 5v12l1 16-1 5 1 16 1 11v5l-1 4v16l-1 3 2 1v19l-1 4 2 9-2 5 1 5v14l-2 2 1 12 1 5v3 10l-2 4 1 17-1 14v11l-1 3 1 25-1 12v10 3l-2 10v6l1 4 1 16 1 11 1 7v6l-3-1v-2l-4-2-8-6-8-11-4-10-5-14-2-14v-557l2-14 7-17 7-12 6-7z" fill="#F01887"/>
<path transform="translate(41,87)" d="m0 0 5 4 3 7 2 3 3 9 5 10 3 3 5 10 4 9v2h2l10 15 3 3v2h2l3 6 4 4 4 7 8 10v3h2l6 8 3 5v2h2l5 8 3 3 4 6 1 3h2l8 12v2l2 2 5 7 1 3 2 2 1 4h2l3 4 1 6h2v2h2l6 9 7 10v2h2v2h2l3 6 3 4v3l4 1 3 6 4 4v2h2l4 6 3 8v3h2l6 7 2 3 3 1v3l3 1 4 8 5 7v3h2l4 8 5 7 4 3 3 10 5 2 3 6 5 5 3 6 3 7 1 3 4 2 3 6 4 6 1 5h2l7 11v2h2l4 4 2 5 2 4 1 3h2v2h2l6 9v3h2v2l3 1 2 8 4 2 4 5 4 7 2 5 2 1-1 2h2l5 5 4 6v2l4 2 4 8v2h2l2 3 3 5v2h2l7 10v3h2l5 9 3 4 3 8 4 3 6 11 2 7 2 1 1 3 2 1v7l-4 2-10-2-5-2-10-5-5-2-10-9-9-10-12-17-11-16-13-19-16-23-14-20-10-15-15-22-16-24-8-11-13-19-11-16-9-13-11-16-13-19-12-17-13-19-15-22-16-23-14-20-10-15-12-17-12-18-11-16-9-14-6-10-2-8-6-18v-24l2-13z" fill="#F01887"/>
<path transform="translate(691,296)" d="m0 0h27l14 1 14 4 10 4 15 9 10 9 7 6 11 14 8 16 5 17 2 18v544l-2 18-4 15-8 17-9 12-11 12-13 10-15 8-17 5-16 2h-24l-20-3-13-4-16-8-13-10-9-9-10-14-7-12-7-21-1-10-1-62v-274l1-219 3-21 5-13 8-15 9-11 5-6 8-7 13-9 14-7 13-4zm-1 10-21 5-16 8-11 8-11 11-10 15-7 16-2 7-2 18v543l2 18 5 17 6 11 9 12 14 14 15 10 10 4 10 3 7 1h32l17-3 16-6 12-7 11-9 7-8 11-18 5-11 4-14 1-9 1-37v-53l-1-437-2-33-4-16-8-16-10-14-10-10-14-9-13-6-16-4-7-1z" fill="#0C050B"/>
<path transform="translate(100,261)" d="m0 0h3l8 12 17 25 11 16 13 19 9 13 11 16-1 2-8-11-5-7v-2h-2l-3-5 3 8-3 7h-2l-2 12-1 35v19l1 36 1 9-1 17v12l-1 6 1 6v46l-1 14v246l1 64 1 21-1 43-1 62 1 9-4 9v3l12-4 6-3 3 1-13 6-16 4h-22l-14-3-14-7-1-3h2v2l5 1 4 2 10 2h8l6-5h2v-26l2-12v-48l1-25v-358l1-7-1-11 1-7-1-14v-33l-1-21v-9l-1-17v-31l-1-18 1-53 1-3h2l2-10-2-12h-2l-2-3v-3l-3-1-1-5h-2l-7-12-7-10-3-4z" fill="#750CB4"/>
<path transform="translate(98,28)" d="m0 0 3 1v2l3-1 2 2 5 3 3 7 4 13 8 11 6 9 4 5 8 14 7 9 7 11 9 12 6 9 8 11 8 12 14 20 16 24 7 10 4 6 8 11 7 11 21 30 9 13 10 14 3 5v2h2l7 11 10 15 14 20 8 12 9 13 10 14 8 11 7 11 11 15 10 15 10 14 6 10 6 7 14 21 4 5 7 10 20 30v2h2l7 12 6 10 5 9v2h2l1 5h2l4 8 3 3 2 11h2 3l-12 10-19 12-8 4-1-2 9-7h2l1-9-1-4-5-6-5-16-8-14-1-3h-2l-6-9-2-5-3-3-3-6v-2h-2l-9-14-6-9v-2h-2l-9-13-2-4-7-9-7-10-3-5-5-7v-2h-2l-5-8-11-15-10-15-7-10-4-5-4-7-8-11-9-13-13-19-2-4-4-4-1-5h-2l-7-10-14-21v-2l-3-1v-4l-4-2-1-5-4-2-3-5-3-6-4-4-5-9-2-1-3-6-4-4-4-6v-2h-2l-4-7v-2h-2l-14-22v-2h-2l-6-10-8-11-7-10-6-8-10-15-14-20-8-12-6-8-7-9v-3h-2l-6-9-8-11-5-8v-2h-2l-3-7-2-1-14-28-2-6-5-3-6-1-8 3-6 5-2-1 8-7 20-13z" fill="#760DB3"/>
<path transform="translate(690,306)" d="m0 0h30l13 2 13 4v1l-8-1-10-2h-9l6 3v2h2v2h2l1 9-1 1 1 12-1 6v107l-1 27v80l-1 70 1 18v188l1 32 1 68v13l-1 10v26l-1 10v16l-2 7-3 7 12-2h5l-3 2-17 3h-32l-14-3 1-2 15 1 7-4h2l1-6h2v-13l1-5 2-21v-20l1-11v-15l1-22v-90l-1-29 1-13v-131l-1-7 1-13-1-9v-11l1-9-1-7v-92l-1-120 1-8-1-32 1-12-2-2v-4h-2v-2l-16-2-12 2h-7l-7 2v-2l12-5z" fill="#760DB4"/>
<path transform="translate(683,21)" d="m0 0 41 1v2l7 2 4 1v2l9 2 3 3v3h2v2l2 1-2 4-2 1-2 5-3 4-4 9-8 17-7 11-5 8h-2l-2 6-10 14-6 9h-2l-1 5-7 10-8 12-4 8-7 10-3 8-3 7-2 5-2 2-8-1v-2l-4-1-6-4-7-6-8-9-9-16-5-13-4-17v-23l5-18 7-16 7-11 9-11 7-7 15-10 15-6z" fill="#B91498"/>
<path transform="translate(698,9)" d="m0 0h13l18 2 15 5 19 10 9 7 10 9 9 10 9 14 6 14 5 19 1 7v23l-4 18-5 13-7 14-11 14-9 9-12 9-15 8-19 6-20 3-21-1-16-4-11-4-15-8-12-9-9-8-9-11-9-15-7-19-3-16-1-17 2-17 6-18 10-19 10-13 11-11 13-9 14-7 15-5zm-4 10-15 3-16 6-10 5-12 9-8 8-10 14-8 16-4 11-3 12v23l5 20 7 16 7 11 9 10 10 10 15 10 14 6 16 4 7 1h13l13-2 20-6 17-9 10-8 7-7 9-13 8-16 5-14 2-11v-20l-4-19-8-19-8-12-9-10-11-10-19-11-13-5-16-3z" fill="#0F050D"/>
<path transform="translate(694,19)" d="m0 0h20l16 3 15 6 17 10 11 10-1 2v7l-1 3-7 6h-2l-2 5-5 10-10 16-8 13-10 15-8 14-7 10-8 11-7 14h-2l-2 5-3 8-4 6-3 7-5 5-4 1 15 4 22 3v1h-13l-20-4-15-6-14-9-8-7 1-2 6 5 3 1v2h8l3-4 1-5 4-8 3-7 7-10 4-8 14-21 1-3h2l2-5 8-11 6-9 2-4h2l2-5 7-11 16-32 2-2 2-5 2-1v-4-2h-2v-3l-3-1v-2l-3 1-7-4-5-1v-2h-5l-1-2-32-1-4-2z" fill="#760DB3"/>
<path transform="translate(675,30)" d="m0 0h8l-1 5h-2l1 3-5 6-5 3-1 3h-3l-2 5-2 2-1 5-3 12-3 4-3 7-3 5-2 4h-3v5h-2v2l-4 1-2 5-3 3-3 9-7 14-3 5h-2v9l-4-2-3-8-3-16v-9l1-11 4-15 7-15 7-12 11-13 9-8 8-4v2h2v-2l5-1z" fill="#F11987"/>
<path transform="translate(84,36)" d="m0 0 2 1v3l8 8 7 16 18 27 10 14 7 9 4 7 4 5 10 14 7 10 10 14 9 13 8 11 4 7 13 18 18 27 4 5 16 24 22 32 10 14 10 15 7 10 10 14 8 12 10 14 7 11 8 11 17 25 8 11 11 16 6 8 11 16 13 19 8 11 12 18 10 16 12 17 7 11 9 16 8 12 2 2 3 8 2 1 6-2-5 5-21 13-3 1-1-2 9-7h2l1-9-1-4-5-6-5-16-8-14-1-3h-2l-6-9-2-5-3-3-3-6v-2h-2l-9-14-6-9v-2h-2l-9-13-2-4-7-9-7-10-3-5-5-7v-2h-2l-5-8-11-15-10-15-7-10-4-5-4-7-8-11-9-13-13-19-2-4-4-4-1-5h-2l-7-10-14-21v-2l-3-1v-4l-4-2-1-5-4-2-3-5-3-6-4-4-5-9-2-1-3-6-4-4-4-6v-2h-2l-4-7v-2h-2l-14-22v-2h-2l-6-10-8-11-7-10-6-8-10-15-14-20-8-12-6-8-7-9v-3h-2l-6-9-8-11-5-8v-2h-2l-3-7-2-1-14-28-2-6-5-3-6-1-8 3-6 5-2-1 8-7z" fill="#8A10A8"/>
<path transform="translate(100,261)" d="m0 0h3l8 12 17 25 11 16 13 19 9 13 11 16-1 2-8-11-5-7v-2h-2l-3-5-4-6-3-4v-2h-2l-3-5-1-3-5 2-4 8-2 20v44l1 40v61l1 20-1 5v145l-1 6 1 9-1 23v121l1 32v68l1 32v53l1 8-2 7 10 1 12-3 11-5 3 1-13 6-16 4h-22l-14-3-14-7-1-3h2v2l5 1 4 2 10 2h8l6-5h2v-26l2-12v-48l1-25v-358l1-7-1-11 1-7-1-14v-33l-1-21v-9l-1-17v-31l-1-18 1-53 1-3h2l2-10-2-12h-2l-2-3v-3l-3-1-1-5h-2l-7-12-7-10-3-4z" fill="#8A10A8"/>
<path transform="translate(690,306)" d="m0 0h30l13 2 13 4v1l-8-1-10-2h-17l1 3v7l-2 9v30l1 24-1 10v89l-1 7 1 15v66l-1 4 1 23v275l1 29v103l1 11v10l20-2 8-1-3 2-17 3h-32l-14-3 1-2 15 1 7-4h2l1-6h2v-13l1-5 2-21v-20l1-11v-15l1-22v-90l-1-29 1-13v-131l-1-7 1-13-1-9v-11l1-9-1-7v-92l-1-120 1-8-1-32 1-12-2-2v-4h-2v-2l-16-2-12 2h-7l-7 2v-2l12-5z" fill="#8A10A8"/>
<path transform="translate(694,19)" d="m0 0h20l16 3 15 6 17 10 11 10h-3l-7-6-4 1-11 10-13 26-6 10-2 4h-2l-1 4-7 11-6 9-6 8-8 12-7 11-9 16-10 15-3 6-5 7-1-4 5-11 3-7 7-10 4-8 14-21 1-3h2l2-5 8-11 6-9 2-4h2l2-5 7-11 16-32 2-2 2-5 2-1v-4-2h-2v-3l-3-1v-2l-3 1-7-4-5-1v-2h-5l-1-2-32-1-4-2z" fill="#8A10A8"/>
<path transform="translate(74,201)" d="m0 0 5 5 13 19 14 20 15 22 16 23 11 16 12 18-1 2-8-11-17-25-16-23-14-20-10-15-12-17-8-12z" fill="#B91498"/>
<path transform="translate(242,445)" d="m0 0 5 5 9 13 10 15 13 19 8 12 12 17 9 13 4 6-1 2-8-11-16-23-13-19-19-28-13-19z" fill="#BA1598"/>
<path transform="translate(641,186)" d="m0 0 7 5 3 1v2l8 1v4l17 8 18 4 17 2v1h-13l-20-4-15-6-14-9-8-7z" fill="#8A10A9"/>
<path transform="translate(694,19)" d="m0 0h20l7 1v3l-30-1-4-2z" fill="#9411A5"/>
<path transform="translate(626,345)" d="m0 0h2l-2 5-8 16-3 8-3 21h-1v-10l2-13 7-17z" fill="#B41499"/>
<path transform="translate(198,381)" d="m0 0 5 5 10 15 7 10-1 2-11-15-10-15z" fill="#BA1598"/>
<path transform="translate(100,261)" d="m0 0h3l12 18-1 2-5-5-8-12z" fill="#9B11A2"/>
<path transform="translate(220,413)" d="m0 0 5 5 7 10 8 12-1 2-8-11-11-16z" fill="#BA1598"/>
<path transform="translate(30,157)" d="m0 0 3 1 3 6h-3l-2 11h-1z" fill="#AB139D"/>
<path transform="translate(112,279)" d="m0 0 4 1 6 9-1 3-2-1v-2h-2l-5-8z" fill="#9110A6"/>
<path transform="translate(626,345)" d="m0 0h2l-2 5-5 9h-2l2-6z" fill="#B1149A"/>
<path transform="translate(86,1014)" d="m0 0h2v2l5 1 4 2v2l-5-1-6-4z" fill="#9F12A1"/>
</svg>
