<?xml version="1.0" encoding="UTF-8"?>
<svg version="1.1" viewBox="0 0 1600 1053" width="966" height="636" xmlns="http://www.w3.org/2000/svg">
<path transform="translate(1159,77)" d="m0 0h14l26 1 33 4 22 4 31 8 30 10 30 13 24 12 22 13 27 18 18 14 13 11 10 9 9 8 5 6 7 6 7 8 11 13 11 14 13 18 10 16 9 15 13 24 13 30 10 28 8 28 6 29 4 27 1 12v71l-2 21-6 36-7 28-6 20-10 27-8 18-8 16-13 24-10 15-11 16-12 16-11 13-9 10-7 8-20 20-8 7-12 10-13 10-14 10-17 11-26 15-31 15-29 11-28 9-24 6-27 5-35 4h-55l-31-3-15-2-45 78-14 24h-169l6-11 16-28 30-52 14-24 15-26 8-13 14-24 15-26 12-21 11-19 15-26 9-16 15-26 16-28 14-24 30-52 9-16 1-1 83-1h60l24 1-6 12-14 24-16 28-30 52-13 23-14 25-10 17-8 14 21-3 33-5 29-8 12-4 25-11 16-8 24-15 11-8 13-11 15-13 9-10 7-8 11-13 21-32 17-34 9-27 5-19 5-29 1-9 1-25v-15l-3-29-2-14-8-32-6-16-11-27-9-15-11-19-10-13-11-14-11-12-12-11-8-8-19-14-17-12-35-18-20-8-18-6-30-7-22-3-14-1h-35l-33 4-29 7-24 8-17 8-16 8-20 12-16 12-11 9-11 10-8 7-14 15-9 11-10 13-11 17-10 18-9 19-9 25-6 22-4 21-2 18 1 9 16 28 15 26 16 28 14 24 12 22 14 24 15 26 16 28 15 26 14 24 2 3h-503l-14-24-32-56-14-24-15-26-7-12-4 5-11 20-14 24-32 56-15 26-13 22-10 17-15 26-16 28-15 26-12 21-13 23-14 24-16 28-30 52-12 21-7 12h-169l24-42 14-24 45-78 14-24 16-28 30-52 14-24 18-33 13-23 14-24 15-26 12-21 14-24 11-18 10-17 15-26 14-24 30-52 14-25 30-52 11-19 30-52 9-17 168 1 5 1h164l2-4 13-24 14-22 13-18 11-14 11-13 15-16 9-10 8-7 28-24 16-11 14-10 26-15 14-8 27-12 18-7 28-10 41-10 36-5 12-1zm-556 244-15 27-10 17-15 26-16 28-15 26-17 29-14 24-16 28-15 26-16 28-10 17-5 10h166l164 1-1-4-10-19-9-15-16-28-45-78-14-24-30-52-14-24-15-26-10-17z" fill="#3708D3"/>
<path transform="translate(437,317)" d="m0 0 168 1 5 1 163 1 12 24 6 10 8 14 13 22 13 23 13 22 14 24 9 14 9 15 3 3 6 12 14 24 16 28 30 52 12 22 14 24 12 21 30 52 14 24 2 3h-503l-14-24-32-56-14-24-15-26-7-12-4 5-11 20-14 24-32 56-15 26-13 22-10 17-15 26-16 28-15 26-12 21-13 23-14 24-16 28-30 52-12 21-7 12h-169l24-42 14-24 45-78 14-24 16-28 30-52 14-24 18-33 13-23 14-24 15-26 12-21 14-24 11-18 10-17 15-26 14-24 30-52 14-25 30-52 11-19 30-52zm166 4-15 27-10 17-15 26-16 28-15 26-17 29-14 24-16 28-15 26-16 28-10 17-5 10h166l164 1-1-4-10-19-9-15-16-28-45-78-14-24-30-52-14-24-15-26-10-17z" fill="#020001"/>
<path transform="translate(1196,611)" d="m0 0h60l24 1-6 12-14 24-16 28-30 52-13 23-14 25-10 17-7 12-10 16-15 26-20 35-5 8-6 12-10 17-12 21-5 10-14 24-16 28-15 26-10 17h-169l6-11 16-28 30-52 14-24 15-26 8-13 14-24 15-26 12-21 11-19 15-26 9-16 15-26 16-28 14-24 30-52 9-16 1-1z" fill="#010000"/>
<path transform="translate(1159,77)" d="m0 0h14l26 1 33 4 5 1v1l-17 2-2 4 1 3-5 5-4 5v5 3l2 5 1 5v9l3 16v10l-1 9-1 5v12l1 1v14l-3 4-4 8-3 2-6 2-4 3 5 2 7 1 4 3 6 2-4 1-22-3-14-1h-35l-33 4-29 7-24 8-17 8-16 8-20 12-16 12-11 9-11 10-8 7-14 15-9 11-10 13-11 17-10 18-9 19-9 25-6 22-4 21-2 18-1 4-3-1-15-25-9-14-13-23-9-15-14-25-12-20-12-21-10-19-3-7h2l2-4 13-24 14-22 13-18 11-14 11-13 15-16 9-10 8-7 28-24 16-11 14-10 26-15 14-8 27-12 18-7 28-10 41-10 36-5 12-1z" fill="#F72583"/>
<path transform="translate(604,12)" d="m0 0 3 3 8 15 10 17 30 52 16 28 14 24 15 26 12 21 15 26 14 24 8 13v2h-290l6-11 14-24 90-156 28-49 6-10z" fill="#A21AA0"/>
<path transform="translate(1159,77)" d="m0 0h14l26 1 33 4 5 1v1l-17 2-2 4 1 3-5 5-4 5v5 3l2 5 1 5v9l3 16v10l-1 9-1 5v12l1 1v14l-3 4-4 8-3 2-6 2-4 3 5 2 7 1 4 3 6 2-4 1-22-3-14-1h-35l-33 4-29 7-24 8-17 8-16 8-20 12-5 4-9 3-2-2v-7l3-9 2-2 1-10v-7l-4-9-2-5 1-11 2-11v-7l-1-1v-7l3-2v-32l-1-6-1-8 1-1-2-10 2-7 5-5h2v-3h2l1-3h2v-2l21-8 17-6 41-10 36-5 12-1z" fill="#A21AA0"/>
<path transform="translate(1202,377)" d="m0 0 3 1 8 16 14 25 10 17 12 21 15 26 16 28 7 12v1h-171l-3-7-11-20-14-24-45-78-8-14v-1h167z" fill="#020001"/>
<path transform="translate(628,67)" d="m0 0 4 2 3 3v2h2l2 2 2 1 2 4 4 4 16 28 15 26 14 24 16 28 14 24 16 28 9 15 2 5h-119l-6-3-2-2-2-1 1-7 1-2v-13l1-1v-8l-1-3v-8l1-4v-18l2-19 1-39-1-4v-22l1-14 2-2-1-18-1-3z" fill="#3708D3"/>
<path transform="translate(1198,803)" d="m0 0h5l-2 6h2 7v3l3 1-1 5-1 8h-2l3 5 2 8v27l-1 3v11l-4 13-1 4h2l-1 6-1-3h-2l1 11 2 10v2l1 1-1 3-3 1-4 4v-2h-2l-1 5-3 1-2 3v3l5 2 3 3-10 1h-55l-31-3-13-2-2-1 2-5 11-20 14-24 5-10 9-15 10-18 14-24 12-20 14-1z" fill="#A21AA0"/>
<path transform="translate(1e3 108)" d="m0 0 1 2-3 3h-2v3l-7 6-1 7 2 11v3 8l1 2v32l-3 4-1 5 2 1v7l-2 11-1 12 5 11 1 7v8l-2 5-3 6-1 10 1 2 7-2-5 5-9 7-14 12-8 7-5 3-4 3-4-2v-12l-1-3v-6l-2-6-1-7 1-11 3-24 2-5 1-13-1-18-2-19-4-18v-10l-1-8 5-8h2v-2l6-5v-2l19-10 21-9z" fill="#E0258C"/>
<path transform="translate(526,147)" d="m0 0 1 2-3 6-1 14-2 10-2 16-1 24 2 9 1 3-1 11-1 7-5 5-2 6 7 2v1h-60l6-11 14-24 45-78z" fill="#E0258C"/>
<path transform="translate(499,194)" d="m0 0 1 2-5 11-3 21-2 10 1 6-1 7-5 4 1 5 8 1v1l-5 1h-30l6-11 14-24 15-26z" fill="#F72583"/>
<path transform="translate(774,317)" d="m0 0 3 3 7 12 4 6v3h2l6 11 9 16 10 20 3 5 7 11 6 11 4 8 3 5 1 6 1 4-3-3-11-19-12-21-17-29-12-21-10-19-3-7h2z" fill="#E0258B"/>
<path transform="translate(772,319)" d="m0 0h3l6 12 6 10 12 22 9 15 8 16 15 26 9 16-1 2-13-22-12-21-17-29-12-21-10-19z" fill="#A21AA0"/>
<path transform="translate(857,466)" d="m0 0 3 3 9-1 3 2v4h2l-2 15-3-1-12-20z" fill="#DF248C"/>
<path transform="translate(857,466)" d="m0 0 4 4 10 13 1 6-3-1-12-20z" fill="#A21AA1"/>
</svg>
