<svg xml:space="preserve" viewBox="437.58792 407.80800000000005 207.36 263.52" version="1.1" xmlns:xlink="http://www.w3.org/1999/xlink" xmlns="http://www.w3.org/2000/svg" style="max-height: 500px" width="207.36" height="263.52">
<desc>Created with Fabric.js 5.2.4</desc>
<defs>
</defs>
<rect fill="transparent" height="100%" width="100%" y="0" x="0"/>
<g id="d47dd5fb-f79f-47af-b844-0a4f6f927ee8" transform="matrix(1 0 0 1 540 540)">
</g>
<g id="e6ddff66-8188-4446-a231-22eb56c631ed" transform="matrix(1 0 0 1 540 540)">
<rect height="1080" width="1080" ry="0" rx="0" y="-540" x="-540" style="stroke: none; stroke-width: 1; stroke-dasharray: none; stroke-linecap: butt; stroke-dashoffset: 0; stroke-linejoin: miter; stroke-miterlimit: 4; fill: rgb(255,255,255); fill-rule: nonzero; opacity: 1; visibility: hidden;"/>
</g>
<g transform="matrix(0.25 0 0 0.25 504.38 540.13)">
<path stroke-linecap="round" d="M 0 0 L 19 1 L 35 5 L 49 11 L 60 18 L 71 27 L 79 36 L 92 54 L 107 76 L 124 101 L 138 121 L 151 140 L 162 156 L 175 175 L 190 197 L 204 217 L 230 255 L 246 278 L 262 302 L 270 313 L 283 332 L 299 355 L 318 383 L 334 406 L 360 444 L 372 461 L 383 479 L 391 496 L 394 506 L 395 513 L 395 537 L 392 553 L 386 569 L 380 580 L 371 592 L 363 600 L 355 606 L 341 616 L 323 626 L 311 631 L 299 634 L 292 635 L 276 635 L 264 634 L 242 627 L 227 619 L 213 608 L 203 596 L 193 582 L 180 563 L 169 547 L 157 530 L 147 515 L 131 492 L 118 473 L 107 457 L 101 448 L 100 897 L 98 921 L 93 942 L 87 958 L 79 974 L 69 989 L 58 1001 L 47 1011 L 34 1019 L 20 1025 L 7 1028 L -10 1029 L -27 1027 L -40 1023 L -56 1015 L -69 1005 L -78 996 L -89 982 L -98 967 L -106 949 L -111 932 L -114 914 L -115 903 L -116 837 L -116 385 L -115 134 L -112 104 L -108 84 L -104 72 L -94 53 L -82 39 L -69 27 L -56 18 L -42 10 L -30 5 L -19 2 z" transform="translate(-139.5, -514.5)" style="stroke: none; stroke-width: 1; stroke-dasharray: none; stroke-linecap: butt; stroke-dashoffset: 0; stroke-linejoin: miter; stroke-miterlimit: 4; fill: rgb(59,5,209); fill-rule: nonzero; opacity: 1;"/>
</g>
<g transform="matrix(0.25 0 0 0.25 612.5 576.13)">
<path stroke-linecap="round" d="M 0 0 L 27 0 L 41 1 L 55 5 L 65 9 L 80 18 L 90 27 L 97 33 L 108 47 L 116 63 L 121 80 L 123 98 L 123 642 L 121 660 L 117 675 L 109 692 L 100 704 L 89 716 L 76 726 L 61 734 L 44 739 L 28 741 L 4 741 L -16 738 L -29 734 L -45 726 L -58 716 L -67 707 L -77 693 L -84 681 L -91 660 L -92 650 L -93 588 L -93 314 L -92 95 L -89 74 L -84 61 L -76 46 L -67 35 L -62 29 L -54 22 L -41 13 L -27 6 L -14 2 z" transform="translate(-15, -370.5)" style="stroke: none; stroke-width: 1; stroke-dasharray: none; stroke-linecap: butt; stroke-dashoffset: 0; stroke-linejoin: miter; stroke-miterlimit: 4; fill: rgb(185,20,152); fill-rule: nonzero; opacity: 1;"/>
</g>
<g transform="matrix(0.25 0 0 0.25 461.25 557.5)">
<path stroke-linecap="round" d="M 0 0 L 3 1 L 14 19 L 24 33 L 31 43 L 44 62 L 61 87 L 83 119 L 98 141 L 109 157 L 122 176 L 131 189 L 142 205 L 141 207 L 133 196 L 128 189 L 128 187 L 126 187 L 123 182 L 126 190 L 123 197 L 121 197 L 119 209 L 118 244 L 118 263 L 119 299 L 120 308 L 119 325 L 119 337 L 118 343 L 119 349 L 119 395 L 118 409 L 118 655 L 119 719 L 120 740 L 119 783 L 118 845 L 119 854 L 115 863 L 115 866 L 127 862 L 133 859 L 136 860 L 123 866 L 107 870 L 85 870 L 71 867 L 55 859 L 42 848 L 33 839 L 22 824 L 13 808 L 6 789 L 2 772 L 0 749 z" transform="translate(-71, -435)" style="stroke: none; stroke-width: 1; stroke-dasharray: none; stroke-linecap: butt; stroke-dashoffset: 0; stroke-linejoin: miter; stroke-miterlimit: 4; fill: rgb(185,20,152); fill-rule: nonzero; opacity: 1;"/>
</g>
<g transform="matrix(0.25 0 0 0.25 501.5 492.25)">
<path stroke-linecap="round" d="M 0 0 L 3 1 L 3 3 L 6 2 L 8 4 L 13 7 L 16 14 L 20 27 L 28 38 L 34 47 L 38 52 L 46 66 L 53 75 L 60 86 L 69 98 L 75 107 L 83 118 L 91 130 L 105 150 L 121 174 L 128 184 L 132 190 L 140 201 L 147 212 L 168 242 L 177 255 L 187 269 L 190 274 L 190 276 L 192 276 L 199 287 L 209 302 L 223 322 L 231 334 L 240 347 L 250 361 L 258 372 L 265 383 L 276 398 L 286 413 L 296 427 L 302 437 L 308 444 L 322 465 L 326 470 L 333 480 L 353 510 L 353 512 L 355 512 L 362 524 L 368 534 L 373 543 L 373 545 L 375 545 L 376 550 L 378 550 L 382 558 L 385 561 L 387 572 L 389 572 L 392 572 L 380 582 L 361 594 L 345 602 L 336 605 L 329 606 L 307 606 L 290 602 L 274 594 L 262 585 L 253 576 L 240 559 L 225 537 L 212 518 L 196 495 L 182 475 L 172 460 L 157 438 L 141 414 L 133 403 L 120 384 L 109 368 L 100 355 L 89 339 L 76 320 L 64 303 L 51 284 L 36 262 L 20 239 L 6 219 L -4 204 L -16 187 L -28 169 L -39 153 L -48 139 L -54 129 L -62 109 L -64 99 L -64 84 L -62 68 L -56 52 L -48 38 L -39 27 L -26 16 L -6 3 z" transform="translate(-164, -303)" style="stroke: none; stroke-width: 1; stroke-dasharray: none; stroke-linecap: butt; stroke-dashoffset: 0; stroke-linejoin: miter; stroke-miterlimit: 4; fill: rgb(185,20,152); fill-rule: nonzero; opacity: 1;"/>
</g>
<g transform="matrix(0.25 0 0 0.25 612.5 576.13)">
<path stroke-linecap="round" d="M 0 0 L 27 0 L 41 1 L 55 5 L 65 9 L 80 18 L 90 27 L 97 33 L 108 47 L 116 63 L 121 80 L 123 98 L 123 642 L 121 660 L 117 675 L 109 692 L 100 704 L 89 716 L 76 726 L 61 734 L 44 739 L 28 741 L 4 741 L -16 738 L -29 734 L -45 726 L -58 716 L -67 707 L -77 693 L -84 681 L -91 660 L -92 650 L -93 588 L -93 314 L -92 95 L -89 74 L -84 61 L -76 46 L -67 35 L -62 29 L -54 22 L -41 13 L -27 6 L -14 2 z M -1 10 L -22 15 L -38 23 L -49 31 L -60 42 L -70 57 L -77 73 L -79 80 L -81 98 L -81 641 L -79 659 L -74 676 L -68 687 L -59 699 L -45 713 L -30 723 L -20 727 L -10 730 L -3 731 L 29 731 L 46 728 L 49 726 L 41 727 L 32 728 L 36 720 L 37 707 L 37 698 L 38 680 L 38 662 L 39 645 L 39 623 L 38 564 L 37 532 L 37 348 L 36 332 L 37 254 L 37 180 L 38 145 L 38 49 L 39 40 L 38 31 L 39 30 L 38 21 L 36 21 L 36 19 L 34 19 L 33 16 L 28 14 L 37 14 L 50 17 L 55 17 L 52 15 L 36 11 L 29 10 z" transform="translate(-15, -370.5)" style="stroke: none; stroke-width: 1; stroke-dasharray: none; stroke-linecap: butt; stroke-dashoffset: 0; stroke-linejoin: miter; stroke-miterlimit: 4; fill: rgb(59,5,209); fill-rule: nonzero; opacity: 1;"/>
</g>
<g transform="matrix(0.25 0 0 0.25 482 579.75)">
<path stroke-linecap="round" d="M 0 0 L 4 3 L 4 6 L 6 6 L 14 18 L 19 25 L 24 30 L 33 43 L 46 62 L 53 72 L 65 90 L 71 101 L 72 144 L 72 570 L 70 590 L 66 607 L 59 626 L 50 643 L 38 659 L 27 670 L 16 678 L 6 681 L -3 685 L -8 686 L -8 681 L -4 673 L -5 656 L -4 594 L -3 559 L -4 536 L -5 457 L -5 227 L -4 211 L -4 168 L -5 161 L -4 156 L -4 143 L -3 125 L -4 115 L -5 75 L -5 61 L -4 25 L -1 16 L 1 16 L 2 9 L 2 6 z" transform="translate(-32, -343)" style="stroke: none; stroke-width: 1; stroke-dasharray: none; stroke-linecap: butt; stroke-dashoffset: 0; stroke-linejoin: miter; stroke-miterlimit: 4; fill: rgb(59,5,209); fill-rule: nonzero; opacity: 1;"/>
</g>
<g transform="matrix(0.25 0 0 0.25 612.13 438.5)">
<path stroke-linecap="round" d="M 0 0 L 13 0 L 31 2 L 46 7 L 65 17 L 74 24 L 84 33 L 93 43 L 102 57 L 108 71 L 113 90 L 114 97 L 114 120 L 110 138 L 105 151 L 98 165 L 87 179 L 78 188 L 66 197 L 51 205 L 32 211 L 12 214 L -9 213 L -25 209 L -36 205 L -51 197 L -63 188 L -72 180 L -81 169 L -90 154 L -97 135 L -100 119 L -101 102 L -99 85 L -93 67 L -83 48 L -73 35 L -62 24 L -49 15 L -35 8 L -20 3 z" transform="translate(-6.5, -107)" style="stroke: none; stroke-width: 1; stroke-dasharray: none; stroke-linecap: butt; stroke-dashoffset: 0; stroke-linejoin: miter; stroke-miterlimit: 4; fill: rgb(59,5,209); fill-rule: nonzero; opacity: 1;"/>
</g>
<g transform="matrix(0.25 0 0 0.25 504.38 540.13)">
<path stroke-linecap="round" d="M 0 0 L 19 1 L 35 5 L 49 11 L 60 18 L 71 27 L 79 36 L 92 54 L 107 76 L 124 101 L 138 121 L 151 140 L 162 156 L 175 175 L 190 197 L 204 217 L 230 255 L 246 278 L 262 302 L 270 313 L 283 332 L 299 355 L 318 383 L 334 406 L 360 444 L 372 461 L 383 479 L 391 496 L 394 506 L 395 513 L 395 537 L 392 553 L 386 569 L 380 580 L 371 592 L 363 600 L 355 606 L 341 616 L 323 626 L 311 631 L 299 634 L 292 635 L 276 635 L 264 634 L 242 627 L 227 619 L 213 608 L 203 596 L 193 582 L 180 563 L 169 547 L 157 530 L 147 515 L 131 492 L 118 473 L 107 457 L 101 448 L 100 897 L 98 921 L 93 942 L 87 958 L 79 974 L 69 989 L 58 1001 L 47 1011 L 34 1019 L 20 1025 L 7 1028 L -10 1029 L -27 1027 L -40 1023 L -56 1015 L -69 1005 L -78 996 L -89 982 L -98 967 L -106 949 L -111 932 L -114 914 L -115 903 L -116 837 L -116 385 L -115 134 L -112 104 L -108 84 L -104 72 L -94 53 L -82 39 L -69 27 L -56 18 L -42 10 L -30 5 L -19 2 z M -7 11 L -21 14 L -34 19 L -47 26 L -63 37 L -76 48 L -86 61 L -94 76 L -98 88 L -100 104 L -100 119 L -97 132 L -92 145 L -86 156 L -79 167 L -64 189 L -56 201 L -45 217 L -38 227 L -23 249 L -9 269 L 7 292 L 15 304 L 31 327 L 44 346 L 60 369 L 68 381 L 75 391 L 88 410 L 102 430 L 115 449 L 131 473 L 138 483 L 153 505 L 167 525 L 183 548 L 199 572 L 211 588 L 220 599 L 228 607 L 243 617 L 254 622 L 271 626 L 293 626 L 303 624 L 318 618 L 335 608 L 349 598 L 361 587 L 368 579 L 377 563 L 381 553 L 385 533 L 385 520 L 383 508 L 377 490 L 366 471 L 354 454 L 343 438 L 329 418 L 321 406 L 307 386 L 292 364 L 276 341 L 259 316 L 252 306 L 239 287 L 225 267 L 215 252 L 208 242 L 197 226 L 183 206 L 171 188 L 161 174 L 153 162 L 141 145 L 133 133 L 117 110 L 104 91 L 89 69 L 77 52 L 64 36 L 54 27 L 41 19 L 29 14 L 14 11 z M -104 149 L -104 898 L -102 921 L -98 938 L -91 957 L -82 973 L -73 985 L -64 995 L -52 1006 L -38 1014 L -26 1018 L -19 1019 L 3 1019 L 19 1015 L 35 1007 L 46 999 L 58 987 L 69 971 L 77 956 L 84 937 L 88 920 L 90 900 L 90 474 L 89 431 L 80 415 L 71 402 L 57 382 L 49 370 L 33 347 L 25 335 L 11 315 L -5 291 L -13 280 L -23 265 L -39 242 L -56 217 L -64 205 L -73 192 L -83 178 L -95 160 L -102 149 z" transform="translate(-139.5, -514.5)" style="stroke: none; stroke-width: 1; stroke-dasharray: none; stroke-linecap: butt; stroke-dashoffset: 0; stroke-linejoin: miter; stroke-miterlimit: 4; fill: rgb(13,5,11); fill-rule: nonzero; opacity: 1;"/>
</g>
<g transform="matrix(0.25 0 0 0.25 448.88 554.38)">
<path stroke-linecap="round" d="M 0 0 L 2 1 L 6 9 L 10 15 L 11 19 L 13 19 L 16 25 L 19 28 L 19 30 L 21 30 L 23 36 L 23 38 L 27 40 L 30 44 L 33 51 L 36 56 L 38 62 L 38 70 L 35 75 L 32 76 L 32 81 L 32 84 L 30 89 L 30 97 L 31 99 L 30 118 L 31 121 L 31 130 L 30 135 L 31 147 L 31 159 L 32 161 L 31 179 L 31 198 L 32 209 L 31 217 L 30 227 L 31 231 L 31 249 L 30 251 L 32 252 L 31 259 L 31 271 L 32 275 L 32 288 L 31 291 L 33 318 L 32 322 L 32 330 L 33 339 L 33 350 L 32 358 L 33 364 L 34 380 L 34 398 L 33 408 L 35 425 L 33 430 L 34 433 L 34 454 L 35 465 L 33 470 L 35 486 L 34 491 L 34 500 L 35 504 L 33 512 L 34 513 L 34 528 L 35 542 L 34 549 L 33 550 L 35 559 L 35 563 L 35 583 L 33 590 L 34 599 L 34 613 L 35 623 L 33 630 L 35 635 L 34 647 L 34 666 L 32 668 L 33 678 L 33 693 L 34 698 L 33 707 L 32 712 L 32 751 L 31 759 L 32 766 L 30 769 L 32 769 L 31 779 L 30 786 L 30 799 L 31 805 L 30 809 L 31 816 L 30 818 L 33 829 L 34 833 L 28 828 L 24 823 L 19 818 L 10 802 L 5 789 L 3 778 L 1 771 L -1 755 L -1 1 z" transform="translate(-18.5, -416.5)" style="stroke: none; stroke-width: 1; stroke-dasharray: none; stroke-linecap: butt; stroke-dashoffset: 0; stroke-linejoin: miter; stroke-miterlimit: 4; fill: rgb(240,24,135); fill-rule: nonzero; opacity: 1;"/>
</g>
<g transform="matrix(0.25 0 0 0.25 593.5 577.25)">
<path stroke-linecap="round" d="M 0 0 L 1 2 L 3 2 L 5 7 L 6 25 L 8 37 L 10 44 L 9 51 L 10 52 L 9 63 L 8 76 L 7 80 L 7 87 L 8 94 L 6 107 L 8 115 L 6 124 L 6 148 L 5 156 L 6 162 L 5 166 L 7 166 L 8 184 L 7 188 L 7 196 L 8 201 L 8 207 L 6 207 L 7 214 L 7 223 L 8 239 L 8 281 L 7 286 L 8 294 L 7 295 L 8 304 L 8 320 L 7 327 L 8 332 L 8 344 L 9 360 L 8 365 L 9 381 L 10 392 L 10 397 L 9 401 L 9 417 L 8 420 L 10 421 L 10 440 L 9 444 L 11 453 L 9 458 L 10 463 L 10 477 L 8 479 L 9 491 L 10 496 L 10 499 L 10 509 L 8 513 L 9 530 L 8 544 L 8 555 L 7 558 L 8 583 L 7 595 L 7 605 L 7 608 L 5 618 L 5 624 L 6 628 L 7 644 L 8 655 L 9 662 L 9 668 L 6 667 L 6 665 L 2 663 L -6 657 L -14 646 L -18 636 L -23 622 L -25 608 L -25 51 L -23 37 L -16 20 L -9 8 L -3 1 z" transform="translate(7, -334)" style="stroke: none; stroke-width: 1; stroke-dasharray: none; stroke-linecap: butt; stroke-dashoffset: 0; stroke-linejoin: miter; stroke-miterlimit: 4; fill: rgb(240,24,135); fill-rule: nonzero; opacity: 1;"/>
</g>
<g transform="matrix(0.25 0 0 0.25 490.38 498.88)">
<path stroke-linecap="round" d="M 0 0 L 5 4 L 8 11 L 10 14 L 13 23 L 18 33 L 21 36 L 26 46 L 30 55 L 30 57 L 32 57 L 42 72 L 45 75 L 45 77 L 47 77 L 50 83 L 54 87 L 58 94 L 66 104 L 66 107 L 68 107 L 74 115 L 77 120 L 77 122 L 79 122 L 84 130 L 87 133 L 91 139 L 92 142 L 94 142 L 102 154 L 102 156 L 104 158 L 109 165 L 110 168 L 112 170 L 113 174 L 115 174 L 118 178 L 119 184 L 121 184 L 121 186 L 123 186 L 129 195 L 136 205 L 136 207 L 138 207 L 138 209 L 140 209 L 143 215 L 146 219 L 146 222 L 150 223 L 153 229 L 157 233 L 157 235 L 159 235 L 163 241 L 166 249 L 166 252 L 168 252 L 174 259 L 176 262 L 179 263 L 179 266 L 182 267 L 186 275 L 191 282 L 191 285 L 193 285 L 197 293 L 202 300 L 206 303 L 209 313 L 214 315 L 217 321 L 222 326 L 225 332 L 228 339 L 229 342 L 233 344 L 236 350 L 240 356 L 241 361 L 243 361 L 250 372 L 250 374 L 252 374 L 256 378 L 258 383 L 260 387 L 261 390 L 263 390 L 263 392 L 265 392 L 271 401 L 271 404 L 273 404 L 273 406 L 276 407 L 278 415 L 282 417 L 286 422 L 290 429 L 292 434 L 294 435 L 293 437 L 295 437 L 300 442 L 304 448 L 304 450 L 308 452 L 312 460 L 312 462 L 314 462 L 316 465 L 319 470 L 319 472 L 321 472 L 328 482 L 328 485 L 330 485 L 335 494 L 338 498 L 341 506 L 345 509 L 351 520 L 353 527 L 355 528 L 356 531 L 358 532 L 358 539 L 354 541 L 344 539 L 339 537 L 329 532 L 324 530 L 314 521 L 305 511 L 293 494 L 282 478 L 269 459 L 253 436 L 239 416 L 229 401 L 214 379 L 198 355 L 190 344 L 177 325 L 166 309 L 157 296 L 146 280 L 133 261 L 121 244 L 108 225 L 93 203 L 77 180 L 63 160 L 53 145 L 41 128 L 29 110 L 18 94 L 9 80 L 3 70 L 1 62 L -5 44 L -5 20 L -3 7 z" transform="translate(-176.5, -270.5)" style="stroke: none; stroke-width: 1; stroke-dasharray: none; stroke-linecap: butt; stroke-dashoffset: 0; stroke-linejoin: miter; stroke-miterlimit: 4; fill: rgb(240,24,135); fill-rule: nonzero; opacity: 1;"/>
</g>
<g transform="matrix(0.25 0 0 0.25 612.5 576.13)">
<path stroke-linecap="round" d="M 0 0 L 27 0 L 41 1 L 55 5 L 65 9 L 80 18 L 90 27 L 97 33 L 108 47 L 116 63 L 121 80 L 123 98 L 123 642 L 121 660 L 117 675 L 109 692 L 100 704 L 89 716 L 76 726 L 61 734 L 44 739 L 28 741 L 4 741 L -16 738 L -29 734 L -45 726 L -58 716 L -67 707 L -77 693 L -84 681 L -91 660 L -92 650 L -93 588 L -93 314 L -92 95 L -89 74 L -84 61 L -76 46 L -67 35 L -62 29 L -54 22 L -41 13 L -27 6 L -14 2 z M -1 10 L -22 15 L -38 23 L -49 31 L -60 42 L -70 57 L -77 73 L -79 80 L -81 98 L -81 641 L -79 659 L -74 676 L -68 687 L -59 699 L -45 713 L -30 723 L -20 727 L -10 730 L -3 731 L 29 731 L 46 728 L 62 722 L 74 715 L 85 706 L 92 698 L 103 680 L 108 669 L 112 655 L 113 646 L 114 609 L 114 556 L 113 119 L 111 86 L 107 70 L 99 54 L 89 40 L 79 30 L 65 21 L 52 15 L 36 11 L 29 10 z" transform="translate(-15, -370.5)" style="stroke: none; stroke-width: 1; stroke-dasharray: none; stroke-linecap: butt; stroke-dashoffset: 0; stroke-linejoin: miter; stroke-miterlimit: 4; fill: rgb(12,5,11); fill-rule: nonzero; opacity: 1;"/>
</g>
<g transform="matrix(0.25 0 0 0.25 468.25 570.5)">
<path stroke-linecap="round" d="M 0 0 L 3 0 L 11 12 L 28 37 L 39 53 L 52 72 L 61 85 L 72 101 L 71 103 L 63 92 L 58 85 L 58 83 L 56 83 L 53 78 L 56 86 L 53 93 L 51 93 L 49 105 L 48 140 L 48 159 L 49 195 L 50 204 L 49 221 L 49 233 L 48 239 L 49 245 L 49 291 L 48 305 L 48 551 L 49 615 L 50 636 L 49 679 L 48 741 L 49 750 L 45 759 L 45 762 L 57 758 L 63 755 L 66 756 L 53 762 L 37 766 L 15 766 L 1 763 L -13 756 L -14 753 L -12 753 L -12 755 L -7 756 L -3 758 L 7 760 L 15 760 L 21 755 L 23 755 L 23 729 L 25 717 L 25 669 L 26 644 L 26 286 L 27 279 L 26 268 L 27 261 L 26 247 L 26 214 L 25 193 L 25 184 L 24 167 L 24 136 L 23 118 L 24 65 L 25 62 L 27 62 L 29 52 L 27 40 L 25 40 L 23 37 L 23 34 L 20 33 L 19 28 L 17 28 L 10 16 L 3 6 L 0 2 z" transform="translate(-29, -383)" style="stroke: none; stroke-width: 1; stroke-dasharray: none; stroke-linecap: butt; stroke-dashoffset: 0; stroke-linejoin: miter; stroke-miterlimit: 4; fill: rgb(117,12,180); fill-rule: nonzero; opacity: 1;"/>
</g>
<g transform="matrix(0.25 0 0 0.25 505.25 491.25)">
<path stroke-linecap="round" d="M 0 0 L 3 1 L 3 3 L 6 2 L 8 4 L 13 7 L 16 14 L 20 27 L 28 38 L 34 47 L 38 52 L 46 66 L 53 75 L 60 86 L 69 98 L 75 107 L 83 118 L 91 130 L 105 150 L 121 174 L 128 184 L 132 190 L 140 201 L 147 212 L 168 242 L 177 255 L 187 269 L 190 274 L 190 276 L 192 276 L 199 287 L 209 302 L 223 322 L 231 334 L 240 347 L 250 361 L 258 372 L 265 383 L 276 398 L 286 413 L 296 427 L 302 437 L 308 444 L 322 465 L 326 470 L 333 480 L 353 510 L 353 512 L 355 512 L 362 524 L 368 534 L 373 543 L 373 545 L 375 545 L 376 550 L 378 550 L 382 558 L 385 561 L 387 572 L 389 572 L 392 572 L 380 582 L 361 594 L 353 598 L 352 596 L 361 589 L 363 589 L 364 580 L 363 576 L 358 570 L 353 554 L 345 540 L 344 537 L 342 537 L 336 528 L 334 523 L 331 520 L 328 514 L 328 512 L 326 512 L 317 498 L 311 489 L 311 487 L 309 487 L 300 474 L 298 470 L 291 461 L 284 451 L 281 446 L 276 439 L 276 437 L 274 437 L 269 429 L 258 414 L 248 399 L 241 389 L 237 384 L 233 377 L 225 366 L 216 353 L 203 334 L 201 330 L 197 326 L 196 321 L 194 321 L 187 311 L 173 290 L 173 288 L 170 287 L 170 283 L 166 281 L 165 276 L 161 274 L 158 269 L 155 263 L 151 259 L 146 250 L 144 249 L 141 243 L 137 239 L 133 233 L 133 231 L 131 231 L 127 224 L 127 222 L 125 222 L 111 200 L 111 198 L 109 198 L 103 188 L 95 177 L 88 167 L 82 159 L 72 144 L 58 124 L 50 112 L 44 104 L 37 95 L 37 92 L 35 92 L 29 83 L 21 72 L 16 64 L 16 62 L 14 62 L 11 55 L 9 54 L -5 26 L -7 20 L -12 17 L -18 16 L -26 19 L -32 24 L -34 23 L -26 16 L -6 3 z" transform="translate(-179, -299)" style="stroke: none; stroke-width: 1; stroke-dasharray: none; stroke-linecap: butt; stroke-dashoffset: 0; stroke-linejoin: miter; stroke-miterlimit: 4; fill: rgb(118,13,179); fill-rule: nonzero; opacity: 1;"/>
</g>
<g transform="matrix(0.25 0 0 0.25 611.75 576.13)">
<path stroke-linecap="round" d="M 0 0 L 30 0 L 43 2 L 56 6 L 56 7 L 48 6 L 38 4 L 29 4 L 35 7 L 35 9 L 37 9 L 37 11 L 39 11 L 40 20 L 39 21 L 40 33 L 39 39 L 39 146 L 38 173 L 38 253 L 37 323 L 38 341 L 38 529 L 39 561 L 40 629 L 40 642 L 39 652 L 39 678 L 38 688 L 38 704 L 36 711 L 33 718 L 45 716 L 50 716 L 47 718 L 30 721 L -2 721 L -16 718 L -15 716 L 0 717 L 7 713 L 9 713 L 10 707 L 12 707 L 12 694 L 13 689 L 15 668 L 15 648 L 16 637 L 16 622 L 17 600 L 17 510 L 16 481 L 17 468 L 17 337 L 16 330 L 17 317 L 16 308 L 16 297 L 17 288 L 16 281 L 16 189 L 15 69 L 16 61 L 15 29 L 16 17 L 14 15 L 14 11 L 12 11 L 12 9 L -4 7 L -16 9 L -23 9 L -30 11 L -30 9 L -18 4 z" transform="translate(-13, -360.5)" style="stroke: none; stroke-width: 1; stroke-dasharray: none; stroke-linecap: butt; stroke-dashoffset: 0; stroke-linejoin: miter; stroke-miterlimit: 4; fill: rgb(118,13,180); fill-rule: nonzero; opacity: 1;"/>
</g>
<g transform="matrix(0.25 0 0 0.25 605.88 436.5)">
<path stroke-linecap="round" d="M 0 0 L 41 1 L 41 3 L 48 5 L 52 6 L 52 8 L 61 10 L 64 13 L 64 16 L 66 16 L 66 18 L 68 19 L 66 23 L 64 24 L 62 29 L 59 33 L 55 42 L 47 59 L 40 70 L 35 78 L 33 78 L 31 84 L 21 98 L 15 107 L 13 107 L 12 112 L 5 122 L -3 134 L -7 142 L -14 152 L -17 160 L -20 167 L -22 172 L -24 174 L -32 173 L -32 171 L -36 170 L -42 166 L -49 160 L -57 151 L -66 135 L -71 122 L -75 105 L -75 82 L -70 64 L -63 48 L -56 37 L -47 26 L -40 19 L -25 9 L -10 3 z" transform="translate(3.5, -87)" style="stroke: none; stroke-width: 1; stroke-dasharray: none; stroke-linecap: butt; stroke-dashoffset: 0; stroke-linejoin: miter; stroke-miterlimit: 4; fill: rgb(185,20,152); fill-rule: nonzero; opacity: 1;"/>
</g>
<g transform="matrix(0.25 0 0 0.25 612.13 438.5)">
<path stroke-linecap="round" d="M 0 0 L 13 0 L 31 2 L 46 7 L 65 17 L 74 24 L 84 33 L 93 43 L 102 57 L 108 71 L 113 90 L 114 97 L 114 120 L 110 138 L 105 151 L 98 165 L 87 179 L 78 188 L 66 197 L 51 205 L 32 211 L 12 214 L -9 213 L -25 209 L -36 205 L -51 197 L -63 188 L -72 180 L -81 169 L -90 154 L -97 135 L -100 119 L -101 102 L -99 85 L -93 67 L -83 48 L -73 35 L -62 24 L -49 15 L -35 8 L -20 3 z M -4 10 L -19 13 L -35 19 L -45 24 L -57 33 L -65 41 L -75 55 L -83 71 L -87 82 L -90 94 L -90 117 L -85 137 L -78 153 L -71 164 L -62 174 L -52 184 L -37 194 L -23 200 L -7 204 L 0 205 L 13 205 L 26 203 L 46 197 L 63 188 L 73 180 L 80 173 L 89 160 L 97 144 L 102 130 L 104 119 L 104 99 L 100 80 L 92 61 L 84 49 L 75 39 L 64 29 L 45 18 L 32 13 L 16 10 z" transform="translate(-6.5, -107)" style="stroke: none; stroke-width: 1; stroke-dasharray: none; stroke-linecap: butt; stroke-dashoffset: 0; stroke-linejoin: miter; stroke-miterlimit: 4; fill: rgb(15,5,13); fill-rule: nonzero; opacity: 1;"/>
</g>
<g transform="matrix(0.25 0 0 0.25 612.75 438.63)">
<path stroke-linecap="round" d="M 0 0 L 20 0 L 36 3 L 51 9 L 68 19 L 79 29 L 78 31 L 78 38 L 77 41 L 70 47 L 68 47 L 66 52 L 61 62 L 51 78 L 43 91 L 33 106 L 25 120 L 18 130 L 10 141 L 3 155 L 1 155 L -1 160 L -4 168 L -8 174 L -11 181 L -16 186 L -20 187 L -5 191 L 17 194 L 17 195 L 4 195 L -16 191 L -31 185 L -45 176 L -53 169 L -52 167 L -46 172 L -43 173 L -43 175 L -35 175 L -32 171 L -31 166 L -27 158 L -24 151 L -17 141 L -13 133 L 1 112 L 2 109 L 4 109 L 6 104 L 14 93 L 20 84 L 22 80 L 24 80 L 26 75 L 33 64 L 49 32 L 51 30 L 53 25 L 55 24 L 55 20 L 55 18 L 53 18 L 53 15 L 50 14 L 50 12 L 47 13 L 40 9 L 35 8 L 35 6 L 30 6 L 29 4 L -3 3 L -7 1 z" transform="translate(-13, -97.5)" style="stroke: none; stroke-width: 1; stroke-dasharray: none; stroke-linecap: butt; stroke-dashoffset: 0; stroke-linejoin: miter; stroke-miterlimit: 4; fill: rgb(118,13,179); fill-rule: nonzero; opacity: 1;"/>
</g>
<g transform="matrix(0.25 0 0 0.25 597.5 431.63)">
<path stroke-linecap="round" d="M 0 0 L 8 0 L 7 5 L 5 5 L 6 8 L 1 14 L -4 17 L -5 20 L -8 20 L -10 25 L -12 27 L -13 32 L -16 44 L -19 48 L -22 55 L -25 60 L -27 64 L -30 64 L -30 69 L -32 69 L -32 71 L -36 72 L -38 77 L -41 80 L -44 89 L -51 103 L -54 108 L -56 108 L -56 117 L -60 115 L -63 107 L -66 91 L -66 82 L -65 71 L -61 56 L -54 41 L -47 29 L -36 16 L -27 8 L -19 4 L -19 6 L -17 6 L -17 4 L -12 3 z" transform="translate(29, -58.5)" style="stroke: none; stroke-width: 1; stroke-dasharray: none; stroke-linecap: butt; stroke-dashoffset: 0; stroke-linejoin: miter; stroke-miterlimit: 4; fill: rgb(241,25,135); fill-rule: nonzero; opacity: 1;"/>
</g>
<g transform="matrix(0.25 0 0 0.25 504 492.25)">
<path stroke-linecap="round" d="M 0 0 L 2 1 L 2 4 L 10 12 L 17 28 L 35 55 L 45 69 L 52 78 L 56 85 L 60 90 L 70 104 L 77 114 L 87 128 L 96 141 L 104 152 L 108 159 L 121 177 L 139 204 L 143 209 L 159 233 L 181 265 L 191 279 L 201 294 L 208 304 L 218 318 L 226 330 L 236 344 L 243 355 L 251 366 L 268 391 L 276 402 L 287 418 L 293 426 L 304 442 L 317 461 L 325 472 L 337 490 L 347 506 L 359 523 L 366 534 L 375 550 L 383 562 L 385 564 L 388 572 L 390 573 L 396 571 L 391 576 L 370 589 L 367 590 L 366 588 L 375 581 L 377 581 L 378 572 L 377 568 L 372 562 L 367 546 L 359 532 L 358 529 L 356 529 L 350 520 L 348 515 L 345 512 L 342 506 L 342 504 L 340 504 L 331 490 L 325 481 L 325 479 L 323 479 L 314 466 L 312 462 L 305 453 L 298 443 L 295 438 L 290 431 L 290 429 L 288 429 L 283 421 L 272 406 L 262 391 L 255 381 L 251 376 L 247 369 L 239 358 L 230 345 L 217 326 L 215 322 L 211 318 L 210 313 L 208 313 L 201 303 L 187 282 L 187 280 L 184 279 L 184 275 L 180 273 L 179 268 L 175 266 L 172 261 L 169 255 L 165 251 L 160 242 L 158 241 L 155 235 L 151 231 L 147 225 L 147 223 L 145 223 L 141 216 L 141 214 L 139 214 L 125 192 L 125 190 L 123 190 L 117 180 L 109 169 L 102 159 L 96 151 L 86 136 L 72 116 L 64 104 L 58 96 L 51 87 L 51 84 L 49 84 L 43 75 L 35 64 L 30 56 L 30 54 L 28 54 L 25 47 L 23 46 L 9 18 L 7 12 L 2 9 L -4 8 L -12 11 L -18 16 L -20 15 L -12 8 z" transform="translate(-188, -295)" style="stroke: none; stroke-width: 1; stroke-dasharray: none; stroke-linecap: butt; stroke-dashoffset: 0; stroke-linejoin: miter; stroke-miterlimit: 4; fill: rgb(138,16,168); fill-rule: nonzero; opacity: 1;"/>
</g>
<g transform="matrix(0.25 0 0 0.25 468.25 570.5)">
<path stroke-linecap="round" d="M 0 0 L 3 0 L 11 12 L 28 37 L 39 53 L 52 72 L 61 85 L 72 101 L 71 103 L 63 92 L 58 85 L 58 83 L 56 83 L 53 78 L 49 72 L 46 68 L 46 66 L 44 66 L 41 61 L 40 58 L 35 60 L 31 68 L 29 88 L 29 132 L 30 172 L 30 233 L 31 253 L 30 258 L 30 403 L 29 409 L 30 418 L 29 441 L 29 562 L 30 594 L 30 662 L 31 694 L 31 747 L 32 755 L 30 762 L 40 763 L 52 760 L 63 755 L 66 756 L 53 762 L 37 766 L 15 766 L 1 763 L -13 756 L -14 753 L -12 753 L -12 755 L -7 756 L -3 758 L 7 760 L 15 760 L 21 755 L 23 755 L 23 729 L 25 717 L 25 669 L 26 644 L 26 286 L 27 279 L 26 268 L 27 261 L 26 247 L 26 214 L 25 193 L 25 184 L 24 167 L 24 136 L 23 118 L 24 65 L 25 62 L 27 62 L 29 52 L 27 40 L 25 40 L 23 37 L 23 34 L 20 33 L 19 28 L 17 28 L 10 16 L 3 6 L 0 2 z" transform="translate(-29, -383)" style="stroke: none; stroke-width: 1; stroke-dasharray: none; stroke-linecap: butt; stroke-dashoffset: 0; stroke-linejoin: miter; stroke-miterlimit: 4; fill: rgb(138,16,168); fill-rule: nonzero; opacity: 1;"/>
</g>
<g transform="matrix(0.25 0 0 0.25 611.75 576.13)">
<path stroke-linecap="round" d="M 0 0 L 30 0 L 43 2 L 56 6 L 56 7 L 48 6 L 38 4 L 21 4 L 22 7 L 22 14 L 20 23 L 20 53 L 21 77 L 20 87 L 20 176 L 19 183 L 20 198 L 20 264 L 19 268 L 20 291 L 20 566 L 21 595 L 21 698 L 22 709 L 22 719 L 42 717 L 50 716 L 47 718 L 30 721 L -2 721 L -16 718 L -15 716 L 0 717 L 7 713 L 9 713 L 10 707 L 12 707 L 12 694 L 13 689 L 15 668 L 15 648 L 16 637 L 16 622 L 17 600 L 17 510 L 16 481 L 17 468 L 17 337 L 16 330 L 17 317 L 16 308 L 16 297 L 17 288 L 16 281 L 16 189 L 15 69 L 16 61 L 15 29 L 16 17 L 14 15 L 14 11 L 12 11 L 12 9 L -4 7 L -16 9 L -23 9 L -30 11 L -30 9 L -18 4 z" transform="translate(-13, -360.5)" style="stroke: none; stroke-width: 1; stroke-dasharray: none; stroke-linecap: butt; stroke-dashoffset: 0; stroke-linejoin: miter; stroke-miterlimit: 4; fill: rgb(138,16,168); fill-rule: nonzero; opacity: 1;"/>
</g>
<g transform="matrix(0.25 0 0 0.25 615.38 435.88)">
<path stroke-linecap="round" d="M 0 0 L 20 0 L 36 3 L 51 9 L 68 19 L 79 29 L 76 29 L 69 23 L 65 24 L 54 34 L 41 60 L 35 70 L 33 74 L 31 74 L 30 78 L 23 89 L 17 98 L 11 106 L 3 118 L -4 129 L -13 145 L -23 160 L -26 166 L -31 173 L -32 169 L -27 158 L -24 151 L -17 141 L -13 133 L 1 112 L 2 109 L 4 109 L 6 104 L 14 93 L 20 84 L 22 80 L 24 80 L 26 75 L 33 64 L 49 32 L 51 30 L 53 25 L 55 24 L 55 20 L 55 18 L 53 18 L 53 15 L 50 14 L 50 12 L 47 13 L 40 9 L 35 8 L 35 6 L 30 6 L 29 4 L -3 3 L -7 1 z" transform="translate(-23.5, -86.5)" style="stroke: none; stroke-width: 1; stroke-dasharray: none; stroke-linecap: butt; stroke-dashoffset: 0; stroke-linejoin: miter; stroke-miterlimit: 4; fill: rgb(138,16,168); fill-rule: nonzero; opacity: 1;"/>
</g>
<g transform="matrix(0.25 0 0 0.25 465.25 475.38)">
<path stroke-linecap="round" d="M 0 0 L 5 5 L 18 24 L 32 44 L 47 66 L 63 89 L 74 105 L 86 123 L 85 125 L 77 114 L 60 89 L 44 66 L 30 46 L 20 31 L 8 14 L 0 2 z" transform="translate(-43, -62.5)" style="stroke: none; stroke-width: 1; stroke-dasharray: none; stroke-linecap: butt; stroke-dashoffset: 0; stroke-linejoin: miter; stroke-miterlimit: 4; fill: rgb(185,20,152); fill-rule: nonzero; opacity: 1;"/>
</g>
<g transform="matrix(0.25 0 0 0.25 505.25 533.5)">
<path stroke-linecap="round" d="M 0 0 L 5 5 L 14 18 L 24 33 L 37 52 L 45 64 L 57 81 L 66 94 L 70 100 L 69 102 L 61 91 L 45 68 L 32 49 L 13 21 L 0 2 z" transform="translate(-35, -51)" style="stroke: none; stroke-width: 1; stroke-dasharray: none; stroke-linecap: butt; stroke-dashoffset: 0; stroke-linejoin: miter; stroke-miterlimit: 4; fill: rgb(186,21,152); fill-rule: nonzero; opacity: 1;"/>
</g>
<g transform="matrix(0.25 0 0 0.25 605 459.5)">
<path stroke-linecap="round" d="M 0 0 L 7 5 L 10 6 L 10 8 L 18 9 L 18 13 L 35 21 L 53 25 L 70 27 L 70 28 L 57 28 L 37 24 L 22 18 L 8 9 L 0 2 z" transform="translate(-35, -14)" style="stroke: none; stroke-width: 1; stroke-dasharray: none; stroke-linecap: butt; stroke-dashoffset: 0; stroke-linejoin: miter; stroke-miterlimit: 4; fill: rgb(138,16,169); fill-rule: nonzero; opacity: 1;"/>
</g>
<g transform="matrix(0.25 0 0 0.25 612 414.75)">
<path stroke-linecap="round" d="M 0 0 L 20 0 L 27 1 L 27 4 L -3 3 L -7 1 z" transform="translate(-10, -2)" style="stroke: none; stroke-width: 1; stroke-dasharray: none; stroke-linecap: butt; stroke-dashoffset: 0; stroke-linejoin: miter; stroke-miterlimit: 4; fill: rgb(148,17,165); fill-rule: nonzero; opacity: 1;"/>
</g>
<g transform="matrix(0.25 0 0 0.25 590.88 502)">
<path stroke-linecap="round" d="M 0 0 L 2 0 L 0 5 L -8 21 L -11 29 L -14 50 L -15 50 L -15 40 L -13 27 L -6 10 z" transform="translate(6.5, -25)" style="stroke: none; stroke-width: 1; stroke-dasharray: none; stroke-linecap: butt; stroke-dashoffset: 0; stroke-linejoin: miter; stroke-miterlimit: 4; fill: rgb(180,20,153); fill-rule: nonzero; opacity: 1;"/>
</g>
<g transform="matrix(0.25 0 0 0.25 488.25 508.75)">
<path stroke-linecap="round" d="M 0 0 L 5 5 L 15 20 L 22 30 L 21 32 L 10 17 L 0 2 z" transform="translate(-11, -16)" style="stroke: none; stroke-width: 1; stroke-dasharray: none; stroke-linecap: butt; stroke-dashoffset: 0; stroke-linejoin: miter; stroke-miterlimit: 4; fill: rgb(186,21,152); fill-rule: nonzero; opacity: 1;"/>
</g>
<g transform="matrix(0.25 0 0 0.25 462.88 477.25)">
<path stroke-linecap="round" d="M 0 0 L 3 0 L 15 18 L 14 20 L 9 15 L 1 3 z" transform="translate(-7.5, -10)" style="stroke: none; stroke-width: 1; stroke-dasharray: none; stroke-linecap: butt; stroke-dashoffset: 0; stroke-linejoin: miter; stroke-miterlimit: 4; fill: rgb(155,17,162); fill-rule: nonzero; opacity: 1;"/>
</g>
<g transform="matrix(0.25 0 0 0.25 493.5 516.38)">
<path stroke-linecap="round" d="M 0 0 L 5 5 L 12 15 L 20 27 L 19 29 L 11 18 L 0 2 z" transform="translate(-10, -14.5)" style="stroke: none; stroke-width: 1; stroke-dasharray: none; stroke-linecap: butt; stroke-dashoffset: 0; stroke-linejoin: miter; stroke-miterlimit: 4; fill: rgb(186,21,152); fill-rule: nonzero; opacity: 1;"/>
</g>
<g transform="matrix(0.25 0 0 0.25 444.25 451)">
<path stroke-linecap="round" d="M 0 0 L 3 1 L 6 7 L 3 7 L 1 18 L 0 18 z" transform="translate(-3, -9)" style="stroke: none; stroke-width: 1; stroke-dasharray: none; stroke-linecap: butt; stroke-dashoffset: 0; stroke-linejoin: miter; stroke-miterlimit: 4; fill: rgb(171,19,157); fill-rule: nonzero; opacity: 1;"/>
</g>
<g transform="matrix(0.25 0 0 0.25 465.25 480.88)">
<path stroke-linecap="round" d="M 0 0 L 4 1 L 10 10 L 9 13 L 7 12 L 7 10 L 5 10 L 0 2 z" transform="translate(-5, -6.5)" style="stroke: none; stroke-width: 1; stroke-dasharray: none; stroke-linecap: butt; stroke-dashoffset: 0; stroke-linejoin: miter; stroke-miterlimit: 4; fill: rgb(145,16,166); fill-rule: nonzero; opacity: 1;"/>
</g>
</svg>