<?xml version="1.0" standalone="no"?>
<!DOCTYPE svg PUBLIC "-//W3C//DTD SVG 20010904//EN"
 "http://www.w3.org/TR/2001/REC-SVG-20010904/DTD/svg10.dtd">
<svg version="1.0" xmlns="http://www.w3.org/2000/svg"
 width="300.000000pt" height="400.000000pt" viewBox="0 0 300.000000 400.000000"
 preserveAspectRatio="xMidYMid meet">
<metadata>
Created by potrace 1.10, written by Peter Selinger 2001-2011
</metadata>
<g transform="translate(0.000000,400.000000) scale(0.100000,-0.100000)"
fill="#000000" stroke="none">
<path d="M1517 3089 c-53 -12 -86 -32 -131 -76 -53 -52 -66 -88 -66 -185 -1
-57 -5 -89 -15 -102 -18 -24 -20 -108 -4 -139 7 -12 27 -39 45 -60 33 -36 38
-48 35 -74 -1 -7 -45 -54 -97 -105 l-95 -92 -84 -18 c-105 -21 -134 -36 -178
-90 -44 -56 -133 -195 -147 -232 -6 -17 -9 -85 -8 -170 2 -89 -2 -161 -10
-196 -16 -70 1 -253 31 -318 23 -51 69 -92 103 -92 14 0 40 -7 59 -14 31 -13
35 -19 35 -53 0 -79 -45 -185 -88 -207 -15 -8 -38 -26 -51 -40 -24 -25 -24
-26 -8 -77 10 -28 17 -64 17 -80 0 -35 32 -69 60 -64 18 4 20 -1 20 -58 0 -48
-6 -71 -25 -102 -13 -22 -25 -49 -25 -61 0 -11 -21 -54 -47 -94 -41 -64 -48
-82 -51 -137 -6 -90 5 -153 26 -153 15 0 17 13 17 108 l0 107 48 72 c26 39 47
82 47 95 0 13 11 39 25 58 20 27 25 46 25 90 0 31 5 82 11 114 13 63 7 81 -17
47 -23 -33 -56 -61 -71 -61 -9 0 -13 17 -13 61 0 47 -4 65 -18 75 -22 17 -8
43 36 65 18 9 42 29 54 44 27 35 58 145 58 207 0 55 -9 62 -105 88 -58 16 -61
18 -86 70 -18 37 -26 74 -29 124 -6 108 -1 218 10 231 12 14 13 53 5 195 l-7
115 80 121 c45 66 92 128 106 138 27 17 107 37 161 41 23 1 56 26 146 111 64
60 117 116 118 125 2 29 -30 93 -59 120 -36 33 -54 96 -40 134 6 15 16 25 23
22 9 -3 11 17 8 85 -4 113 1 129 52 185 56 61 105 83 190 83 76 0 106 -12 176
-69 65 -53 72 -78 58 -194 -12 -88 -11 -97 5 -111 31 -27 3 -142 -38 -152 -24
-6 -64 -77 -64 -112 0 -8 30 -47 68 -86 37 -39 81 -90 97 -113 25 -35 46 -49
128 -84 75 -33 107 -53 134 -84 49 -56 98 -148 123 -230 19 -62 20 -76 10
-126 -10 -45 -10 -61 1 -80 7 -13 14 -57 16 -98 2 -41 11 -87 19 -103 8 -16
14 -34 13 -41 -1 -6 1 -20 6 -30 5 -12 1 -25 -14 -41 -16 -16 -21 -35 -21 -72
0 -36 -7 -59 -25 -86 -31 -46 -45 -54 -114 -63 l-53 -7 7 -61 c3 -34 11 -170
16 -302 7 -186 13 -258 29 -320 17 -67 19 -97 14 -191 -8 -130 6 -214 36 -214
15 0 16 5 9 42 -4 24 -8 95 -9 158 0 73 -8 149 -21 210 -14 68 -22 165 -29
338 -5 134 -12 253 -15 263 -9 28 10 46 57 54 71 12 137 100 138 185 1 14 7
36 15 50 18 32 19 78 1 132 -19 54 -35 186 -39 308 -3 106 -21 163 -85 268
-59 98 -101 134 -201 177 -79 33 -97 45 -143 99 -29 33 -69 78 -90 100 -50 50
-50 78 1 125 21 20 44 46 50 59 15 29 16 113 2 140 -7 14 -9 57 -4 127 l6 106
-62 60 c-34 33 -81 69 -104 79 -45 21 -116 24 -180 9z"/>
<path d="M1603 3052 c-24 -3 -30 -16 -14 -26 5 -4 11 -1 13 5 2 6 13 3 28 -8
14 -11 41 -20 60 -21 33 -3 70 -22 41 -22 -7 0 -9 -5 -6 -11 4 -6 13 -8 21 -5
8 3 15 -1 15 -9 3 -32 4 -36 17 -44 8 -5 13 -11 13 -15 -3 -15 12 -56 20 -56
12 0 11 32 -1 65 -6 16 -16 25 -24 22 -9 -4 -12 2 -11 18 2 14 -6 31 -18 43
-28 24 -97 66 -97 57 0 -3 -8 -2 -17 3 -10 4 -28 6 -40 4z"/>
<path d="M1502 3039 c-21 -8 -52 -33 -52 -41 0 -14 42 -3 50 13 6 10 18 19 26
19 8 0 13 -4 10 -8 -3 -5 1 -9 9 -9 8 0 12 4 9 9 -3 4 0 8 5 8 6 0 11 5 11 10
0 12 -37 12 -68 -1z"/>
<path d="M1510 2945 c-7 -8 -16 -13 -20 -10 -5 3 -6 -4 -3 -15 3 -11 12 -20
20 -20 8 0 11 -4 8 -10 -3 -5 -1 -10 4 -10 14 0 14 27 1 35 -8 5 -7 11 1 21 6
8 10 17 7 19 -3 3 -11 -1 -18 -10z"/>
<path d="M1665 2932 c-14 -10 -12 -34 2 -49 14 -15 27 -17 18 -3 -3 6 -2 10 3
10 11 0 4 37 -7 44 -4 3 -11 2 -16 -2z"/>
<path d="M1389 2914 c-7 -9 -14 -22 -14 -28 -1 -6 -4 -27 -8 -46 -5 -19 -3
-60 2 -90 l10 -55 -4 68 c-3 53 -1 69 10 73 8 3 17 14 20 25 4 10 12 19 20 19
7 0 23 8 36 19 l23 18 -33 -5 c-20 -3 -36 0 -40 7 -6 9 -12 7 -22 -5z"/>
<path d="M1594 2919 c-3 -6 -14 -9 -24 -6 -16 4 -17 2 -8 -19 8 -17 19 -24 40
-24 23 0 28 4 28 25 0 19 -4 23 -17 18 -11 -4 -14 -3 -9 5 4 7 5 12 2 12 -3 0
-8 -5 -12 -11z"/>
<path d="M1707 2899 c3 -11 18 -26 34 -35 17 -8 29 -23 29 -34 0 -11 5 -20 10
-20 6 0 10 10 10 23 -1 14 -16 33 -44 54 -37 27 -43 29 -39 12z"/>
<path d="M1790 2754 c-6 -14 -9 -42 -9 -62 1 -20 3 -29 6 -19 2 9 8 17 11 17
4 0 7 20 7 45 0 25 -1 45 -2 45 -2 0 -8 -12 -13 -26z"/>
<path d="M1417 2743 c-4 -3 -7 -19 -7 -34 0 -21 6 -29 28 -35 32 -9 62 -6 79
7 7 7 13 5 15 -3 3 -7 11 2 20 19 15 30 15 31 -9 42 -26 12 -116 15 -126 4z
m80 -42 c14 12 16 12 11 -1 -2 -8 -19 -16 -36 -18 -26 -3 -31 0 -26 13 5 12 9
13 20 4 11 -9 18 -8 31 2z"/>
<path d="M1640 2742 c-19 -2 -41 -8 -48 -14 -20 -17 43 -68 82 -67 23 1 25 3
9 6 -12 2 -27 11 -33 19 -15 17 1 19 19 2 11 -10 14 -10 18 -1 3 9 11 8 31 -5
25 -16 25 -16 20 6 -4 12 -2 22 3 22 18 0 8 19 -13 25 -37 11 -51 12 -88 7z"/>
<path d="M1524 2574 c4 -9 -3 -18 -19 -24 -14 -5 -25 -16 -25 -24 0 -11 13
-13 58 -11 31 2 76 0 100 -5 40 -7 43 -6 40 14 -2 15 -11 22 -33 24 -23 2 -27
0 -15 -7 11 -8 -4 -11 -53 -11 -47 0 -66 3 -61 11 4 7 21 9 40 6 23 -4 39 -1
49 9 25 25 17 32 -36 32 -41 1 -50 -2 -45 -14z"/>
<path d="M1544 2479 c-7 -12 12 -29 34 -29 6 0 12 5 12 10 0 6 7 10 16 10 8 0
12 5 9 10 -8 14 -62 13 -71 -1z"/>
<path d="M1660 2405 c-25 -12 -49 -20 -54 -17 -5 3 -25 5 -44 4 -18 -1 -50 5
-70 13 l-37 15 27 -23 c15 -12 41 -32 57 -44 l29 -23 59 29 c32 16 64 39 71
50 7 12 11 21 10 20 -2 -1 -23 -11 -48 -24z"/>
<path d="M1431 2353 c-1 -40 50 -111 99 -136 37 -19 84 -17 148 6 39 14 54 -1
48 -45 -3 -17 0 -25 7 -23 18 7 83 -149 101 -240 24 -120 56 -218 77 -237 10
-10 21 -35 25 -55 3 -21 12 -60 19 -88 12 -48 13 -49 19 -20 4 17 12 46 18 66
13 46 5 75 -11 39 -9 -21 -10 -16 -5 30 3 30 10 69 15 85 18 59 39 157 39 180
0 25 -19 46 -21 23 0 -7 -7 12 -16 42 -9 35 -11 56 -4 58 14 5 3 30 -36 81
-25 33 -33 39 -33 24 0 -11 9 -32 20 -46 11 -14 20 -31 20 -39 0 -8 9 -48 19
-89 14 -54 17 -87 12 -122 -4 -26 -10 -49 -12 -50 -2 -2 -15 -9 -29 -15 -14
-7 -17 -10 -8 -8 25 7 29 -5 17 -49 l-11 -39 -19 25 c-10 13 -19 32 -19 41 0
9 -4 18 -8 20 -5 2 -23 50 -40 108 -55 180 -77 245 -84 248 -5 2 -8 8 -8 13 0
6 -14 38 -30 71 -26 52 -29 66 -20 91 5 17 10 39 9 51 0 12 -9 -3 -20 -33 -10
-29 -23 -59 -29 -66 -18 -22 -111 -24 -145 -4 -44 27 -92 80 -98 109 -4 22 -4
21 -6 -7z"/>
<path d="M1400 2275 c0 -23 3 -26 10 -15 7 11 10 -5 10 -51 0 -51 4 -68 15
-73 13 -4 13 -2 5 14 -20 38 -9 42 29 9 22 -19 40 -40 40 -47 1 -7 5 -11 10
-8 5 4 12 0 14 -6 4 -10 6 -10 6 0 1 13 -18 33 -73 75 -28 22 -36 35 -36 61 0
17 -7 41 -15 52 -14 18 -14 18 -15 -11z"/>
<path d="M1791 2240 c0 -8 8 -46 19 -85 12 -45 19 -59 19 -40 0 31 -36 152
-38 125z"/>
<path d="M1217 2178 c-39 -52 -77 -129 -83 -171 -8 -45 -25 -61 -20 -18 2 20
-1 31 -9 31 -20 0 -9 -199 14 -261 11 -27 16 -49 13 -49 -3 0 -17 10 -31 22
l-26 23 26 -30 c31 -36 59 -81 59 -93 0 -20 -33 -86 -37 -74 -3 6 -10 12 -18
12 -10 0 -10 -10 -3 -44 6 -30 6 -51 -1 -64 -11 -20 2 -25 125 -52 53 -12 250
-16 291 -6 24 6 33 3 41 -10 8 -15 11 -14 25 6 l15 22 15 -24 c20 -30 32 -88
18 -88 -5 0 -12 10 -14 23 -2 12 -5 2 -7 -23 l-2 -45 -9 40 c-6 22 -8 48 -5
58 2 9 0 17 -6 17 -6 0 -8 -21 -6 -49 1 -27 0 -47 -4 -44 -5 2 -8 12 -8 21 0
14 -2 14 -9 3 -5 -8 -7 -19 -5 -26 3 -7 -12 -17 -34 -23 -47 -14 -72 -15 -72
-3 0 19 -54 43 -123 55 -54 9 -80 20 -104 42 -18 15 -33 34 -33 41 0 17 -15
17 -27 1 -11 -14 -73 -172 -73 -186 0 -13 100 -3 132 12 24 12 29 12 44 -5 9
-10 28 -19 41 -19 18 0 23 5 23 25 0 18 -5 25 -20 25 -11 0 -20 -4 -20 -10 0
-19 -20 -10 -56 25 -20 19 -40 33 -44 30 -13 -8 -43 42 -36 60 9 23 32 18 71
-16 23 -21 59 -37 106 -49 45 -12 82 -28 99 -45 l27 -26 81 20 c45 11 85 22
90 25 4 2 14 1 22 -4 12 -8 12 -10 0 -14 -43 -13 -39 -16 20 -12 68 4 174 -15
220 -39 30 -16 49 -63 29 -75 -8 -6 -8 -9 2 -13 20 -8 -24 -10 -121 -6 -47 2
-138 3 -202 2 -73 -2 -118 1 -118 7 0 6 8 11 18 12 9 0 28 2 42 3 59 5 94 15
101 27 12 19 -6 22 -33 5 -24 -15 -115 -16 -139 -1 -9 5 -11 2 -6 -9 5 -12 0
-15 -26 -12 -18 2 -26 1 -19 -2 6 -2 12 -8 12 -12 0 -9 2 -8 -105 -20 -44 -4
-76 -9 -71 -9 5 -1 1 -11 -9 -22 -19 -21 -7 -28 13 -8 9 9 12 9 12 1 0 -12
-38 -43 -53 -43 -4 0 -5 5 -1 12 4 7 3 8 -5 4 -6 -4 -9 -11 -6 -16 4 -6 -15
-20 -35 -24 -24 -6 -110 -103 -110 -125 0 -12 -18 -46 -35 -68 -24 -30 -30
-40 -33 -52 -1 -7 2 -10 7 -7 5 4 11 -4 13 -16 3 -18 7 -15 16 18 7 23 23 53
37 68 14 15 25 34 25 42 0 7 3 14 8 14 4 0 16 16 26 35 11 19 44 54 75 77 31
24 58 46 59 51 2 4 22 17 44 28 35 18 59 20 206 20 92 1 220 -2 285 -5 64 -3
117 -1 117 3 0 5 21 11 48 14 35 4 52 1 66 -11 18 -16 19 -16 11 28 -5 25 -9
64 -9 87 -1 22 -3 40 -6 38 -3 -2 -32 14 -64 36 -32 22 -61 38 -63 35 -2 -2
19 -24 47 -49 48 -41 52 -48 52 -91 1 -25 -2 -49 -5 -52 -13 -13 -37 7 -37 30
0 41 -45 73 -129 91 -86 19 -101 28 -94 54 2 9 -3 23 -11 30 -19 16 -21 41 -3
41 9 0 8 3 -2 9 -7 5 -11 13 -7 19 10 16 247 3 267 -15 9 -7 45 -21 80 -30 35
-9 79 -24 97 -35 18 -10 38 -16 43 -12 5 3 22 -2 37 -12 27 -17 27 -17 9 3 -9
11 -14 23 -10 28 5 4 2 5 -4 1 -15 -9 -56 12 -48 24 9 14 -27 29 -56 23 -15
-3 -30 0 -33 6 -12 19 42 23 93 6 27 -9 67 -15 88 -13 32 2 24 6 -49 21 -48 9
-108 17 -134 17 -40 0 -45 -2 -34 -15 11 -13 8 -15 -18 -15 -36 0 -51 15 -22
23 20 5 29 37 10 37 -5 0 -10 -7 -10 -15 0 -8 -6 -15 -12 -16 -75 -5 -292 23
-314 42 -19 15 -18 5 5 -101 20 -89 19 -103 -3 -94 -13 5 -34 86 -38 154 -3
34 -5 35 -43 36 -22 1 -53 -2 -70 -7 -16 -4 -54 -11 -84 -14 l-53 -7 3 320 c3
177 1 318 -4 313 -9 -9 -21 -168 -20 -253 l1 -58 -36 -2 c-34 -1 -35 -2 -7 -5
l31 -4 4 -102 c6 -144 5 -185 -2 -192 -4 -4 -41 -8 -84 -8 -65 -1 -79 1 -93
19 -9 11 -24 23 -35 27 -14 5 -17 13 -12 33 5 17 3 23 -4 19 -13 -8 -13 -8 5
40 8 22 14 32 15 23 0 -22 16 -23 24 -2 14 37 3 120 -15 108 -5 -3 -9 4 -9 15
0 11 -9 44 -21 72 -18 47 -19 60 -9 123 19 124 31 175 41 182 6 3 7 -4 3 -20
-9 -36 2 -33 15 4 7 23 7 29 -1 24 -8 -5 -9 -1 -5 10 4 10 7 21 7 24 0 4 4 1
9 -6 7 -11 9 -10 14 3 4 9 3 13 -3 10 -6 -3 -10 -1 -10 4 0 6 4 11 10 11 11 0
44 59 37 67 -3 2 -16 -11 -30 -29z m-27 -928 c0 -12 -39 -19 -46 -9 -3 5 -2
18 1 30 6 19 8 20 26 3 10 -9 19 -20 19 -24z"/>
<path d="M1142 2143 c-11 -16 -23 -39 -26 -53 -4 -14 -10 -33 -12 -42 -3 -10
-1 -18 5 -18 6 0 11 6 11 13 0 6 13 38 29 70 31 59 26 77 -7 30z"/>
<path d="M1451 2113 c-1 -7 9 -36 21 -65 17 -41 22 -74 22 -150 1 -69 5 -99
14 -103 8 -3 12 10 13 43 1 26 3 62 5 80 1 17 -1 32 -6 32 -4 0 -10 15 -13 33
-6 35 -55 149 -56 130z"/>
<path d="M1225 2081 c-2 -5 16 -11 42 -15 61 -8 148 -8 140 1 -4 4 -31 6 -60
4 -28 -1 -67 3 -84 8 -18 5 -35 6 -38 2z"/>
<path d="M1198 1993 c-23 -26 -36 -56 -31 -70 10 -27 31 -11 51 37 15 37 17
50 8 50 -7 0 -20 -8 -28 -17z"/>
<path d="M970 1953 c0 -5 21 -30 46 -58 28 -31 41 -40 33 -25 -26 56 -80 112
-79 83z"/>
<path d="M926 1912 c-8 -13 57 -102 74 -102 5 0 -2 12 -16 27 -14 15 -22 33
-20 40 3 7 -1 13 -10 13 -8 0 -13 4 -9 9 3 5 1 12 -4 15 -5 4 -12 2 -15 -2z"/>
<path d="M1608 1855 c-1 -30 0 -55 5 -55 4 0 7 25 7 55 0 71 -7 71 -12 0z"/>
<path d="M2085 1841 c-16 -33 -26 -63 -23 -67 8 -7 60 104 56 117 -2 6 -17
-17 -33 -50z"/>
<path d="M1510 1765 c-1 -5 -2 -14 -1 -19 1 -4 -3 -14 -9 -21 -8 -9 -8 -15 0
-20 13 -8 23 17 17 47 -2 13 -5 19 -7 13z"/>
<path d="M884 1709 c-22 -24 -13 -34 16 -19 12 6 24 9 27 6 3 -3 14 -1 24 4
10 6 20 6 23 1 3 -5 23 -12 43 -15 21 -4 47 -9 58 -12 15 -4 14 -1 -5 10 -14
9 -35 15 -48 16 -13 0 -20 4 -17 10 4 6 3 10 -2 9 -4 -1 -10 0 -13 1 -3 1 -24
3 -47 5 -31 2 -46 -2 -59 -16z"/>
<path d="M1028 1628 c4 -4 29 -16 56 -28 36 -15 46 -16 37 -6 -7 9 -21 18 -32
21 -11 4 -17 10 -14 14 2 5 -9 8 -25 7 -16 -1 -26 -4 -22 -8z"/>
<path d="M923 1603 c-17 -2 -37 -11 -43 -19 -11 -12 1 -14 83 -11 52 1 93 5
91 9 -5 8 -74 29 -89 26 -5 -1 -24 -3 -42 -5z"/>
<path d="M1520 1601 c0 -6 7 -7 17 -4 11 5 14 3 9 -6 -6 -9 -1 -12 15 -10 13
2 30 0 36 -4 7 -5 20 -4 29 1 22 12 10 18 -53 27 -35 4 -53 3 -53 -4z"/>
<path d="M2196 1564 c-21 -7 -42 -12 -46 -9 -4 3 -11 -2 -14 -11 -4 -11 -2
-15 8 -11 8 3 32 11 55 18 23 7 41 16 41 21 0 4 -1 8 -2 7 -2 0 -20 -7 -42
-15z"/>
<path d="M946 1515 c-21 -16 -13 -18 19 -6 11 5 28 4 38 -1 10 -5 17 -5 17 1
0 22 -47 26 -74 6z"/>
<path d="M1780 1514 c0 -7 48 -54 56 -54 11 0 2 22 -16 40 -19 19 -40 26 -40
14z"/>
<path d="M2020 1510 c0 -5 17 -10 38 -9 30 0 33 2 17 9 -28 12 -55 12 -55 0z"/>
<path d="M970 1483 c-14 -2 -36 -13 -50 -23 -24 -19 -22 -19 35 1 82 28 85 33
15 22z"/>
<path d="M1985 1469 c-11 -16 -3 -17 40 -4 l40 13 -37 1 c-20 1 -40 -4 -43
-10z"/>
<path d="M870 1391 l-45 -40 46 22 c31 14 46 28 46 40 -1 9 -1 17 -2 17 0 0
-20 -18 -45 -39z"/>
<path d="M915 1364 c-45 -41 -45 -42 -9 -15 38 28 72 61 62 61 -2 0 -26 -21
-53 -46z"/>
<path d="M940 1295 c-19 -19 -29 -35 -24 -35 6 0 25 16 44 35 19 19 29 35 24
35 -6 0 -25 -16 -44 -35z"/>
<path d="M1970 1316 c0 -3 22 -17 49 -30 37 -19 53 -35 69 -70 28 -58 38 -63
46 -22 8 42 0 63 -27 72 -12 4 -33 15 -47 25 -25 17 -90 36 -90 25z"/>
<path d="M995 1205 c-33 -7 -49 -13 -35 -13 40 -1 116 13 105 19 -5 3 -37 0
-70 -6z"/>
<path d="M1362 1204 c3 -3 25 -7 49 -9 31 -3 39 -2 29 5 -16 10 -87 14 -78 4z"/>
<path d="M986 1171 c-4 -6 -1 -11 7 -11 8 0 26 -9 41 -21 18 -14 37 -20 56
-17 16 2 27 1 24 -4 -3 -4 2 -8 11 -8 9 0 13 5 10 10 -3 6 5 10 19 10 17 0 24
4 20 14 -3 8 -29 15 -72 19 -37 4 -77 9 -88 13 -12 3 -25 1 -28 -5z"/>
<path d="M2044 1154 c3 -9 6 -21 6 -27 0 -12 29 23 30 36 0 4 -9 7 -21 7 -15
0 -19 -4 -15 -16z"/>
<path d="M1203 1102 c4 -6 -17 -23 -48 -41 -61 -34 -70 -45 -27 -30 45 15 98
64 82 74 -8 5 -11 4 -7 -3z"/>
<path d="M2074 998 c4 -46 11 -126 16 -178 5 -52 17 -187 26 -300 13 -156 22
-214 36 -243 23 -46 35 -42 19 5 -13 37 -41 230 -46 323 -2 33 -7 102 -10 152
-3 51 -9 132 -12 180 -3 49 -6 100 -6 116 0 17 -5 27 -14 27 -13 0 -14 -14 -9
-82z"/>
<path d="M1129 710 c-13 -10 -19 -19 -12 -20 6 0 15 5 18 10 20 32 168 -4 251
-60 26 -17 48 -29 50 -27 7 7 -64 57 -97 69 -16 6 -28 13 -24 16 10 10 -69 32
-116 32 -32 0 -54 -6 -70 -20z"/>
<path d="M1068 484 c-16 -8 -28 -16 -28 -18 0 -6 24 -1 38 8 8 4 26 12 40 16
l27 8 -25 1 c-14 0 -37 -7 -52 -15z"/>
<path d="M1245 351 c-77 -13 -78 -26 -3 -27 59 -1 68 1 54 12 -13 9 -14 13 -4
17 17 7 3 6 -47 -2z"/>
<path d="M976 305 c4 -8 10 -15 15 -15 5 0 9 -9 9 -21 0 -26 20 -20 31 9 6 15
5 20 -5 16 -7 -3 -20 2 -29 10 -20 20 -28 20 -21 1z"/>
<path d="M1110 262 c0 -4 8 -8 18 -8 9 0 27 -4 40 -8 12 -4 22 -3 22 2 0 10
-33 22 -62 22 -10 0 -18 -4 -18 -8z"/>
</g>
</svg>
